<svg width="32" height="32" viewBox="0 0 60 60" fill="none" xmlns="http://www.w3.org/2000/svg">
<circle cx="30" cy="30" r="30" fill="url(#paint0_linear_813_1739)"/>
<path d="M26.2029 35.3314L26.1936 35.3474C25.9952 35.6897 25.727 35.9863 25.4063 36.218C25.0784 36.4556 24.7022 36.618 24.3044 36.6939C24.304 36.6939 24.3036 36.694 24.3032 36.6941L24.2565 36.4485C23.8977 36.52 23.4675 36.5929 23.0373 36.5929L26.2029 35.3314ZM26.2029 35.3314L26.2097 35.3142C26.3563 34.9447 26.5146 34.4764 26.5146 33.9241C26.5146 32.8628 26.2104 32.0638 25.5694 31.4994L25.5622 31.4931L25.5547 31.4874C24.9238 31.0119 24.0762 30.7881 23.1087 30.7881H18.375H18.125V31.0381V36.5943V36.8444L18.3751 36.8443L23.0373 36.8429L26.2029 35.3314ZM25.9112 20.5298L25.9216 20.5327L25.9321 20.5346C26.6147 20.66 27.2663 20.9175 27.8504 21.2924L27.8503 21.2924L27.8526 21.2939C28.3826 21.6261 28.7805 22.0924 29.0472 22.698L29.0474 22.6985C29.3173 23.308 29.4563 24.0666 29.4563 24.9058C29.4563 25.8845 29.2483 26.6876 28.7924 27.2773L28.7868 27.2846L28.7817 27.2923C28.3825 27.8958 27.7042 28.4464 26.8697 28.8665L26.3063 29.1501L26.911 29.3294C28.0855 29.6779 28.9633 30.2966 29.4979 31.1033L29.4979 31.1034C30.0457 31.9292 30.3896 32.9633 30.3896 34.14C30.3896 35.1141 30.1818 35.9406 29.8411 36.626C29.5017 37.3089 28.958 37.9243 28.3486 38.3331C27.6707 38.7815 26.9213 39.1111 26.1326 39.3078L26.1319 39.308C25.2836 39.5222 24.4448 39.6621 23.6119 39.6621H14.25V20.25H23.396C24.3164 20.25 25.1537 20.3222 25.9112 20.5298ZM23.4265 28.3306L23.3879 28.292C23.9775 28.2123 24.4847 28.0072 24.9039 27.7062C25.501 27.2775 25.7256 26.5272 25.7256 25.6991C25.7256 25.2466 25.6507 24.77 25.4836 24.4342C25.3167 24.0972 25.0675 23.852 24.7659 23.6242L24.7477 23.6105L24.7275 23.6003L24.7182 23.5957C24.4358 23.4537 24.123 23.2965 23.7312 23.2184C23.3479 23.1406 22.969 23.1406 22.5483 23.1406H22.5342H18.375H18.125V23.3906V28.0806V28.3306H18.375H22.8229H23.4265ZM37.1298 37.1271V37.0468C37.7319 37.4471 38.517 37.6362 39.461 37.6362C40.2954 37.6362 41.0593 37.408 41.6737 37.0218L41.6826 37.0162L41.6911 37.0098C42.2165 36.6137 42.5934 36.199 42.7879 35.7608H45.7793C45.2219 37.2762 44.4295 38.3474 43.4125 39.0529C42.3043 39.7479 40.9898 40.1666 39.3896 40.1666L39.3888 40.1666C38.365 40.1697 37.3497 39.9796 36.3964 39.6063L36.393 39.6051C35.5474 39.2878 34.7933 38.7666 34.1977 38.0876L34.1922 38.0813L34.1863 38.0754C33.5493 37.4403 33.0785 36.6581 32.8153 35.7979L32.8128 35.7897L32.8097 35.7817C32.4649 34.8803 32.3231 33.9032 32.3231 32.7691C32.3231 31.7091 32.4646 30.7316 32.8098 29.8279L32.8098 29.8278C33.143 28.9546 33.6356 28.151 34.2626 27.458C34.8891 26.8296 35.6495 26.2763 36.4717 25.9304C37.399 25.558 38.3895 25.3682 39.3887 25.3716H39.3896C40.5794 25.3716 41.6119 25.5837 42.4978 26.0634L42.498 26.0634C43.4051 26.5538 44.086 27.1062 44.6325 27.93L44.6324 27.9301L44.6365 27.9358C45.2029 28.7398 45.6257 29.6359 45.8861 30.5842C46.016 31.5062 46.0847 32.426 46.0375 33.4568H35.875H35.625V33.7068C35.625 34.9134 36.072 36.064 36.7026 36.6978L37.1298 37.1271ZM41.5752 28.7694L41.575 28.7691C41.0149 28.2058 40.1559 27.9024 39.1756 27.9021C38.5889 27.8936 38.0088 28.0262 37.484 28.2887L37.4831 28.2891C37.0196 28.5232 36.7104 28.8341 36.4284 29.1175L36.4153 29.1307L36.4152 29.1307L36.4109 29.1352C36.1137 29.4492 35.9167 29.8445 35.8449 30.2708C35.8341 30.3245 35.823 30.3776 35.8121 30.4302C35.7529 30.7138 35.6965 30.9842 35.6965 31.2539V31.5039H35.9465H42.401H42.6862L42.6489 31.2212C42.5004 30.0972 42.1233 29.3222 41.5752 28.7694ZM35.3375 21.6208H42.8685V23.0691H35.3375V21.6208Z" fill="white" fill-opacity="0.9" stroke="url(#paint1_linear_813_1739)" stroke-width="0.5"/>
<defs>
<linearGradient id="paint0_linear_813_1739" x1="28.8312" y1="58.4416" x2="30" y2="3.31169" gradientUnits="userSpaceOnUse">
<stop stop-color="#004DAE"/>
<stop offset="0.869762" stop-color="#4497FF"/>
</linearGradient>
<linearGradient id="paint1_linear_813_1739" x1="30.1512" y1="20" x2="30.1512" y2="40.4167" gradientUnits="userSpaceOnUse">
<stop stop-color="white"/>
<stop offset="1" stop-color="white" stop-opacity="0"/>
</linearGradient>
</defs>
</svg>
