<svg width="32" height="32" viewBox="0 0 60 60" fill="none" xmlns="http://www.w3.org/2000/svg">
<circle cx="30" cy="30" r="30" fill="url(#paint0_linear_826_1902)"/>
<mask id="mask0_826_1902" style="mask-type:luminance" maskUnits="userSpaceOnUse" x="11" y="11" width="39" height="39">
<path d="M48 30.5C48.0029 32.805 47.5491 35.0878 46.6646 37.2164C45.7802 39.345 44.4827 41.2772 42.8471 42.9014C41.2249 44.5207 39.2995 45.8045 37.1809 46.6793C35.0623 47.5542 32.7921 48.0029 30.5 48C20.8348 48 13 40.1652 13 30.5C12.9939 26.0128 14.7175 21.6959 17.8125 18.4469C19.4456 16.7237 21.4131 15.3518 23.5946 14.4152C25.7762 13.4787 28.1259 12.9971 30.5 13C32.7921 12.997 35.0623 13.4458 37.1809 14.3207C39.2995 15.1955 41.2249 16.4793 42.8471 18.0986C44.4827 19.7228 45.7802 21.655 46.6646 23.7836C47.5491 25.9122 48.0029 28.195 48 30.5Z" fill="white" stroke="white" stroke-width="3.5" stroke-linecap="round" stroke-linejoin="round"/>
<path d="M48 30.5C45.4467 30.5 38.403 29.5375 32.0986 32.3052C25.25 35.3125 20.2914 39.9772 18.1301 42.8787" stroke="black" stroke-width="3.5" stroke-linecap="round" stroke-linejoin="round"/>
<path d="M23.9375 14.2722C26.6762 16.8001 32.6525 23.2357 34.875 29.6249C37.0975 36.0142 37.92 43.8699 38.4275 46.1055" stroke="black" stroke-width="3.5" stroke-linecap="round" stroke-linejoin="round"/>
<path d="M13.1348 28.3125C16.4405 28.512 25.1914 28.6914 30.7914 26.3C36.3914 23.9087 41.21 19.51 42.8629 18.1144" stroke="black" stroke-width="3.5" stroke-linecap="round" stroke-linejoin="round"/>
<path d="M14.3125 37.1614C15.8545 40.894 18.6356 43.9813 22.1875 45.9035M13 30.5C12.9939 26.0128 14.7175 21.6959 17.8125 18.4469C19.4456 16.7237 21.4131 15.3518 23.5946 14.4152C25.7762 13.4787 28.1259 12.9971 30.5 13M37.5 14.456C39.4929 15.328 41.3062 16.5632 42.8471 18.0986C44.4827 19.7228 45.7802 21.655 46.6646 23.7836C47.5491 25.9122 48.0029 28.195 48 30.5C48 32.6542 47.6106 34.7184 46.8975 36.625M30.5 48C32.7921 48.003 35.0623 47.5542 37.1809 46.6793C39.2995 45.8045 41.2249 44.5207 42.8471 42.9014" stroke="white" stroke-width="3.5" stroke-linecap="round" stroke-linejoin="round"/>
</mask>
<g mask="url(#mask0_826_1902)">
<path d="M9.5 9.5H51.5V51.5H9.5V9.5Z" fill="#F8F8F8"/>
</g>
<defs>
<linearGradient id="paint0_linear_826_1902" x1="28.8312" y1="58.4416" x2="30" y2="3.31169" gradientUnits="userSpaceOnUse">
<stop stop-color="#B2215A"/>
<stop offset="1" stop-color="#FD77AB"/>
</linearGradient>
</defs>
</svg>
