<svg width="32" height="32" viewBox="0 0 60 60" fill="none" xmlns="http://www.w3.org/2000/svg">
<circle cx="30" cy="30" r="30" fill="url(#paint0_linear_409_1584)"/>
<mask id="path-2-inside-1_409_1584" fill="white">
<path fill-rule="evenodd" clip-rule="evenodd" d="M33.6234 20.7665V25.7532H41.9351L40.9481 34.1299H33.6234V59.2597H33.6174V59.4327C30.7755 60.1919 25.1297 60.0244 22.8423 59.5159V58.4097H22.8442V34.1299H17V25.7532H22.8442V20.1645C22.8442 13.1098 25.7792 9 34.6753 9H41.9351V17.3766H37.5844C34.1169 17.3766 33.6234 18.5153 33.6234 20.7665Z"/>
</mask>
<path fill-rule="evenodd" clip-rule="evenodd" d="M33.6234 20.7665V25.7532H41.9351L40.9481 34.1299H33.6234V59.2597H33.6174V59.4327C30.7755 60.1919 25.1297 60.0244 22.8423 59.5159V58.4097H22.8442V34.1299H17V25.7532H22.8442V20.1645C22.8442 13.1098 25.7792 9 34.6753 9H41.9351V17.3766H37.5844C34.1169 17.3766 33.6234 18.5153 33.6234 20.7665Z" fill="white" fill-opacity="0.9"/>
<path d="M33.6234 25.7532H33.1234V26.2532H33.6234V25.7532ZM41.9351 25.7532L42.4316 25.8118L42.4974 25.2532H41.9351V25.7532ZM40.9481 34.1299V34.6299H41.3926L41.4446 34.1884L40.9481 34.1299ZM33.6234 34.1299V33.6299H33.1234V34.1299H33.6234ZM33.6234 59.2597V59.7597H34.1234V59.2597H33.6234ZM33.6174 59.2597V58.7597H33.1174V59.2597H33.6174ZM33.6174 59.4327L33.7465 59.9158L34.1174 59.8167V59.4327H33.6174ZM22.8423 59.5159H22.3423V59.9169L22.7338 60.0039L22.8423 59.5159ZM22.8423 58.4097V57.9097H22.3423V58.4097H22.8423ZM22.8442 58.4097V58.9097H23.3442V58.4097H22.8442ZM22.8442 34.1299H23.3442V33.6299H22.8442V34.1299ZM17 34.1299H16.5V34.6299H17V34.1299ZM17 25.7532V25.2532H16.5V25.7532H17ZM22.8442 25.7532V26.2532H23.3442V25.7532H22.8442ZM41.9351 9H42.4351V8.5H41.9351V9ZM41.9351 17.3766V17.8766H42.4351V17.3766H41.9351ZM34.1234 25.7532V20.7665H33.1234V25.7532H34.1234ZM41.9351 25.2532H33.6234V26.2532H41.9351V25.2532ZM41.4446 34.1884L42.4316 25.8118L41.4385 25.6947L40.4515 34.0714L41.4446 34.1884ZM33.6234 34.6299H40.9481V33.6299H33.6234V34.6299ZM34.1234 59.2597V34.1299H33.1234V59.2597H34.1234ZM33.6174 59.7597H33.6234V58.7597H33.6174V59.7597ZM33.1174 59.2597V59.4327H34.1174V59.2597H33.1174ZM33.4884 58.9497C32.1334 59.3117 30.0654 59.4602 28.0245 59.4497C25.9863 59.4392 24.0438 59.2708 22.9508 59.0278L22.7338 60.0039C23.9282 60.2695 25.9523 60.4391 28.0194 60.4497C30.0837 60.4603 32.2596 60.313 33.7465 59.9158L33.4884 58.9497ZM23.3423 59.5159V58.4097H22.3423V59.5159H23.3423ZM22.8423 58.9097H22.8442V57.9097H22.8423V58.9097ZM22.3442 34.1299V58.4097H23.3442V34.1299H22.3442ZM17 34.6299H22.8442V33.6299H17V34.6299ZM16.5 25.7532V34.1299H17.5V25.7532H16.5ZM22.8442 25.2532H17V26.2532H22.8442V25.2532ZM22.3442 20.1645V25.7532H23.3442V20.1645H22.3442ZM34.6753 8.5C30.1613 8.5 27.0435 9.54179 25.0642 11.5892C23.0876 13.6339 22.3442 16.5812 22.3442 20.1645H23.3442C23.3442 16.6931 24.0683 14.0581 25.7832 12.2843C27.4954 10.5131 30.2933 9.5 34.6753 9.5V8.5ZM41.9351 8.5H34.6753V9.5H41.9351V8.5ZM42.4351 17.3766V9H41.4351V17.3766H42.4351ZM37.5844 17.8766H41.9351V16.8766H37.5844V17.8766ZM34.1234 20.7665C34.1234 19.6392 34.2586 18.9861 34.66 18.578C35.065 18.1663 35.8698 17.8766 37.5844 17.8766V16.8766C35.8315 16.8766 34.6558 17.1563 33.9471 17.8767C33.2349 18.6008 33.1234 19.6427 33.1234 20.7665H34.1234Z" fill="url(#paint1_linear_409_1584)" mask="url(#path-2-inside-1_409_1584)"/>
<defs>
<linearGradient id="paint0_linear_409_1584" x1="28.8312" y1="58.4416" x2="30" y2="3.31169" gradientUnits="userSpaceOnUse">
<stop stop-color="#004DAE"/>
<stop offset="0.869762" stop-color="#4497FF"/>
</linearGradient>
<linearGradient id="paint1_linear_409_1584" x1="29.4675" y1="9" x2="29.4675" y2="59.9502" gradientUnits="userSpaceOnUse">
<stop stop-color="white"/>
<stop offset="1" stop-color="white" stop-opacity="0"/>
</linearGradient>
</defs>
</svg>
