<svg width="32" height="32" viewBox="0 0 60 60" fill="none" xmlns="http://www.w3.org/2000/svg">
<circle cx="30" cy="30" r="30" fill="url(#paint0_linear_409_1581)"/>
<mask id="path-2-inside-1_409_1581" fill="white">
<path fill-rule="evenodd" clip-rule="evenodd" d="M20.7922 14.7013C20.7922 16.7455 19.0479 18.4026 16.8961 18.4026C14.7443 18.4026 13 16.7455 13 14.7013C13 12.6571 14.7443 11 16.8961 11C19.0479 11 20.7922 12.6571 20.7922 14.7013ZM13 44.5065H20.18V20.3507H13V44.5065ZM39.3265 44.5065H46.5065V30.8657C46.5065 27.6022 45.7478 25.2784 44.2233 23.5465C42.7083 21.8169 40.7242 21.1285 38.2711 21.1285C35.0449 21.1285 32.6922 22.7662 31.2204 25.1818H31.072L30.634 20.3507H24.9666C25.0623 22.7662 24.9666 44.5065 24.9666 44.5065H32.1466V29.3801C32.7401 27.5032 33.9224 26.5659 35.7868 26.5659C38.1394 26.5659 39.3265 28.2399 39.3265 31.6024V44.5065Z"/>
</mask>
<path fill-rule="evenodd" clip-rule="evenodd" d="M20.7922 14.7013C20.7922 16.7455 19.0479 18.4026 16.8961 18.4026C14.7443 18.4026 13 16.7455 13 14.7013C13 12.6571 14.7443 11 16.8961 11C19.0479 11 20.7922 12.6571 20.7922 14.7013ZM13 44.5065H20.18V20.3507H13V44.5065ZM39.3265 44.5065H46.5065V30.8657C46.5065 27.6022 45.7478 25.2784 44.2233 23.5465C42.7083 21.8169 40.7242 21.1285 38.2711 21.1285C35.0449 21.1285 32.6922 22.7662 31.2204 25.1818H31.072L30.634 20.3507H24.9666C25.0623 22.7662 24.9666 44.5065 24.9666 44.5065H32.1466V29.3801C32.7401 27.5032 33.9224 26.5659 35.7868 26.5659C38.1394 26.5659 39.3265 28.2399 39.3265 31.6024V44.5065Z" fill="white" fill-opacity="0.9"/>
<path d="M20.18 44.5065V45.0065H20.68V44.5065H20.18ZM13 44.5065H12.5V45.0065H13V44.5065ZM20.18 20.3507H20.68V19.8507H20.18V20.3507ZM13 20.3507V19.8507H12.5V20.3507H13ZM46.5065 44.5065V45.0065H47.0065V44.5065H46.5065ZM39.3265 44.5065H38.8265V45.0065H39.3265V44.5065ZM44.2233 23.5465L43.8471 23.8759L43.8479 23.8768L44.2233 23.5465ZM31.2204 25.1818V25.6818H31.5012L31.6473 25.442L31.2204 25.1818ZM31.072 25.1818L30.574 25.227L30.6152 25.6818H31.072V25.1818ZM30.634 20.3507L31.1319 20.3055L31.0907 19.8507H30.634V20.3507ZM24.9666 20.3507V19.8507H24.4464L24.467 20.3705L24.9666 20.3507ZM24.9666 44.5065L24.4666 44.5043L24.4644 45.0065H24.9666V44.5065ZM32.1466 44.5065V45.0065H32.6466V44.5065H32.1466ZM32.1466 29.3801L31.6698 29.2293L31.6466 29.3029V29.3801H32.1466ZM16.8961 18.9026C19.2995 18.9026 21.2922 17.0455 21.2922 14.7013H20.2922C20.2922 16.4455 18.7962 17.9026 16.8961 17.9026V18.9026ZM12.5 14.7013C12.5 17.0455 14.4927 18.9026 16.8961 18.9026V17.9026C14.996 17.9026 13.5 16.4455 13.5 14.7013H12.5ZM16.8961 10.5C14.4927 10.5 12.5 12.3571 12.5 14.7013H13.5C13.5 12.9571 14.996 11.5 16.8961 11.5V10.5ZM21.2922 14.7013C21.2922 12.3571 19.2995 10.5 16.8961 10.5V11.5C18.7962 11.5 20.2922 12.9571 20.2922 14.7013H21.2922ZM20.18 44.0065H13V45.0065H20.18V44.0065ZM19.68 20.3507V44.5065H20.68V20.3507H19.68ZM13 20.8507H20.18V19.8507H13V20.8507ZM13.5 44.5065V20.3507H12.5V44.5065H13.5ZM46.5065 44.0065H39.3265V45.0065H46.5065V44.0065ZM46.0065 30.8657V44.5065H47.0065V30.8657H46.0065ZM43.8479 23.8768C45.268 25.4901 46.0065 27.6816 46.0065 30.8657H47.0065C47.0065 27.5229 46.2276 25.0668 44.5986 23.2161L43.8479 23.8768ZM38.2711 21.6285C40.6209 21.6285 42.451 22.282 43.8471 23.8759L44.5994 23.217C42.9656 21.3518 40.8276 20.6285 38.2711 20.6285V21.6285ZM31.6473 25.442C33.0418 23.1535 35.2434 21.6285 38.2711 21.6285V20.6285C34.8464 20.6285 32.3427 22.3789 30.7934 24.9216L31.6473 25.442ZM31.072 25.6818H31.2204V24.6818H31.072V25.6818ZM30.136 20.3958L30.574 25.227L31.5699 25.1367L31.1319 20.3055L30.136 20.3958ZM24.9666 20.8507H30.634V19.8507H24.9666V20.8507ZM24.9666 44.5065C25.4666 44.5087 25.4666 44.5086 25.4666 44.5084C25.4666 44.5083 25.4666 44.508 25.4666 44.5077C25.4666 44.507 25.4666 44.506 25.4666 44.5047C25.4666 44.5021 25.4666 44.4981 25.4667 44.4929C25.4667 44.4824 25.4668 44.4668 25.4669 44.4462C25.467 44.405 25.4673 44.3438 25.4677 44.2639C25.4683 44.104 25.4693 43.8693 25.4705 43.5696C25.473 42.9704 25.4763 42.1117 25.4801 41.0736C25.4875 38.9976 25.4965 36.2043 25.5025 33.3355C25.5145 27.6073 25.5146 21.5523 25.4662 20.3309L24.467 20.3705C24.5143 21.5646 24.5145 27.5875 24.5025 33.3334C24.4965 36.2015 24.4875 38.9943 24.4801 41.07C24.4763 42.1079 24.473 42.9665 24.4705 43.5656C24.4693 43.8651 24.4683 44.0998 24.4677 44.2596C24.4673 44.3395 24.4671 44.4007 24.4669 44.4419C24.4668 44.4625 24.4667 44.4781 24.4667 44.4885C24.4667 44.4938 24.4666 44.4977 24.4666 44.5003C24.4666 44.5017 24.4666 44.5026 24.4666 44.5033C24.4666 44.5036 24.4666 44.5039 24.4666 44.504C24.4666 44.5042 24.4666 44.5043 24.9666 44.5065ZM32.1466 44.0065H24.9666V45.0065H32.1466V44.0065ZM31.6466 29.3801V44.5065H32.6466V29.3801H31.6466ZM35.7868 26.0659C34.7679 26.0659 33.8912 26.3237 33.1831 26.8745C32.4787 27.4225 31.9877 28.2242 31.6698 29.2293L32.6233 29.5309C32.899 28.6591 33.2959 28.0537 33.7971 27.6638C34.2946 27.2768 34.9414 27.0659 35.7868 27.0659V26.0659ZM39.8265 31.6024C39.8265 29.8775 39.5248 28.4966 38.8477 27.5353C38.1481 26.5422 37.0977 26.0659 35.7868 26.0659V27.0659C36.8285 27.0659 37.548 27.4267 38.0301 28.1112C38.5347 28.8275 38.8265 29.9649 38.8265 31.6024H39.8265ZM39.8265 44.5065V31.6024H38.8265V44.5065H39.8265Z" fill="url(#paint1_linear_409_1581)" mask="url(#path-2-inside-1_409_1581)"/>
<defs>
<linearGradient id="paint0_linear_409_1581" x1="28.8312" y1="58.4416" x2="30" y2="3.31169" gradientUnits="userSpaceOnUse">
<stop stop-color="#004081"/>
<stop offset="1" stop-color="#5BA9F8"/>
</linearGradient>
<linearGradient id="paint1_linear_409_1581" x1="29.7532" y1="11" x2="29.7532" y2="44.5065" gradientUnits="userSpaceOnUse">
<stop stop-color="white"/>
<stop offset="1" stop-color="white" stop-opacity="0"/>
</linearGradient>
</defs>
</svg>
