<svg width="24" height="24" viewBox="0 0 22 33" fill="none" xmlns="http://www.w3.org/2000/svg">
<path d="M17.5411 0.171387H3.60959C2.68705 0.175207 1.80338 0.543378 1.15104 1.19572C0.498701 1.84806 0.130529 2.73172 0.126709 3.65426V29.1954C0.130529 30.1179 0.498701 31.0016 1.15104 31.6539C1.80338 32.3062 2.68705 32.6744 3.60959 32.6782H17.5411C18.4636 32.6744 19.3473 32.3062 19.9996 31.6539C20.652 31.0016 21.0201 30.1179 21.024 29.1954V3.65426C21.0201 2.73172 20.652 1.84806 19.9996 1.19572C19.3473 0.543378 18.4636 0.175207 17.5411 0.171387ZM3.60959 2.4933H17.5411C17.849 2.4933 18.1443 2.61562 18.362 2.83334C18.5797 3.05106 18.7021 3.34636 18.7021 3.65426V4.81522H2.44863V3.65426C2.44863 3.34636 2.57094 3.05106 2.78866 2.83334C3.00639 2.61562 3.30168 2.4933 3.60959 2.4933ZM17.5411 30.3563H3.60959C3.30168 30.3563 3.00639 30.234 2.78866 30.0163C2.57094 29.7986 2.44863 29.5033 2.44863 29.1954V28.0344H18.7021V29.1954C18.7021 29.5033 18.5797 29.7986 18.362 30.0163C18.1443 30.234 17.849 30.3563 17.5411 30.3563Z" fill="#F47B55"/>
</svg>
