<svg width="32" height="32" viewBox="0 0 60 60" fill="none" xmlns="http://www.w3.org/2000/svg">
<circle cx="30" cy="30" r="30" fill="url(#paint0_linear_871_2032)"/>
<path d="M20.8455 18C27.3876 18 32.6905 23.34 32.6905 29.9268C32.6905 36.5135 27.3871 41.8531 20.8455 41.8531C14.3038 41.8531 9 36.5135 9 29.9268C9 23.34 14.3034 18 20.8455 18ZM39.7618 18.6986C43.0329 18.6986 45.6846 23.7251 45.6846 29.9268H45.685C45.685 36.1268 43.0333 41.1549 39.7622 41.1549C36.4912 41.1549 33.8395 36.1268 33.8395 29.9268C33.8395 23.7267 36.4908 18.6986 39.7618 18.6986ZM48.917 19.8681C50.0671 19.8681 51 24.3715 51 29.9268C51 35.4804 50.0675 39.9854 48.917 39.9854C47.7664 39.9854 46.8343 35.4817 46.8343 29.9268C46.8343 24.3719 47.7668 19.8681 48.917 19.8681Z" fill="white"/>
<defs>
<linearGradient id="paint0_linear_871_2032" x1="30" y1="0" x2="30" y2="60" gradientUnits="userSpaceOnUse">
<stop stop-color="#595959"/>
<stop offset="1" stop-color="#252525"/>
</linearGradient>
</defs>
</svg>
