<svg width="32" height="32" viewBox="0 0 60 60" fill="none" xmlns="http://www.w3.org/2000/svg">
<circle cx="30" cy="30" r="30" fill="url(#paint0_linear_866_2015)"/>
<g clip-path="url(#clip0_866_2015)">
<path d="M13 29.5003C13 36.6663 17.3091 42.8224 23.4753 45.529C23.426 44.3071 23.4665 42.8401 23.7799 41.5105C24.1163 40.0898 26.0316 31.9746 26.0316 31.9746C26.0316 31.9746 25.4726 30.8572 25.4726 29.2058C25.4726 26.6124 26.9757 24.6755 28.8476 24.6755C30.4394 24.6755 31.2085 25.8711 31.2085 27.3028C31.2085 28.903 30.1879 31.2965 29.663 33.5134C29.2246 35.3697 30.5938 36.8839 32.4251 36.8839C35.7408 36.8839 37.974 32.6253 37.974 27.5795C37.974 23.744 35.3907 20.8732 30.6921 20.8732C25.3836 20.8732 22.0765 24.832 22.0765 29.254C22.0765 30.7787 22.526 31.8539 23.2301 32.6865C23.5539 33.0689 23.5988 33.2227 23.4817 33.6619C23.3977 33.9838 23.205 34.759 23.1251 35.0662C23.0086 35.5095 22.6495 35.6679 22.2489 35.5043C19.8038 34.5061 18.6651 31.8285 18.6651 28.8185C18.6651 23.8472 22.8577 17.8863 31.1724 17.8863C37.8538 17.8863 42.2514 22.7212 42.2514 27.9112C42.2514 34.7763 38.4347 39.905 32.8088 39.905C30.9195 39.905 29.1422 38.8837 28.5334 37.7236C28.5334 37.7236 27.5175 41.7557 27.3023 42.5344C26.9312 43.8836 26.205 45.2322 25.5409 46.2833C27.1512 46.7594 28.8216 47.0011 30.5007 47.001C40.1645 47.001 48.0001 39.1657 48.0001 29.5003C48.0001 19.8352 40.1645 12 30.5007 12C20.8359 12 13 19.8352 13 29.5003Z" fill="white"/>
</g>
<defs>
<linearGradient id="paint0_linear_866_2015" x1="28.8312" y1="58.4416" x2="30" y2="3.31169" gradientUnits="userSpaceOnUse">
<stop stop-color="#A70000"/>
<stop offset="1" stop-color="#FF9191"/>
</linearGradient>
<clipPath id="clip0_866_2015">
<rect width="35" height="35" fill="white" transform="translate(13 12)"/>
</clipPath>
</defs>
</svg>
