<svg width="24" height="24" viewBox="0 0 24 24" fill="none" xmlns="http://www.w3.org/2000/svg">
<g clip-path="url(#clip0_3709_2106)">
<path d="M23.1256 13.4913C23.1955 13.0011 23.2316 12.5068 23.2337 12.0117C23.2337 9.03133 22.0497 6.17302 19.9423 4.06557C17.8348 1.95813 14.9765 0.774181 11.9961 0.774181C11.5011 0.776243 11.0067 0.812337 10.5166 0.882181C7.74659 -0.610694 4.32519 -0.109225 2.10022 2.11593C-0.124845 4.3409 -0.626314 7.76221 0.866561 10.5322C0.796717 11.0224 0.760624 11.5166 0.758467 12.0117C0.758467 18.2182 5.78975 23.2493 11.9961 23.2493C12.4911 23.2473 12.9855 23.2112 13.4757 23.1413C16.2456 24.6342 19.6669 24.1327 21.8921 21.9076C24.117 19.6826 24.6186 16.2612 23.1256 13.4913Z" fill="white"/>
<path d="M7.12473 14.2558C11.0542 14.2558 14.2397 11.0703 14.2397 7.14085C14.2397 3.21136 11.0542 0.0258789 7.12473 0.0258789C3.19525 0.0258789 0.00976562 3.21136 0.00976562 7.14085C0.00976562 11.0703 3.19525 14.2558 7.12473 14.2558Z" fill="#F47B55"/>
<path d="M16.865 23.9975C20.7945 23.9975 23.9799 20.812 23.9799 16.8825C23.9799 12.9531 20.7945 9.76758 16.865 9.76758C12.9355 9.76758 9.75 12.9531 9.75 16.8825C9.75 20.812 12.9355 23.9975 16.865 23.9975Z" fill="#F47B55"/>
<path d="M11.9954 23.2492C18.2018 23.2492 23.2331 18.2179 23.2331 12.0116C23.2331 5.80518 18.2018 0.773926 11.9954 0.773926C5.78907 0.773926 0.757812 5.80518 0.757812 12.0116C0.757812 18.2179 5.78907 23.2492 11.9954 23.2492Z" fill="#F47B55"/>
<path d="M11.9954 23.2492C18.2018 23.2492 23.2331 18.2179 23.2331 12.0116C23.2331 5.80518 18.2018 0.773926 11.9954 0.773926C5.78907 0.773926 0.757812 5.80518 0.757812 12.0116C0.757812 18.2179 5.78907 23.2492 11.9954 23.2492Z" fill="#F47B55"/>
<path d="M7.89695 10.6321C7.63267 10.1365 7.50097 9.58102 7.51464 9.01955C7.49765 8.30992 7.73997 7.61843 8.1962 7.07462C8.67622 6.53302 9.28936 6.12616 9.97492 5.8943C10.7197 5.63152 11.5042 5.49936 12.2939 5.50365C12.8115 5.50004 13.3286 5.53895 13.8399 5.61999C14.2044 5.68109 14.5631 5.77285 14.9122 5.8943C15.2292 6.0038 15.5146 6.1893 15.7434 6.43459C15.918 6.63139 16.0129 6.88633 16.0093 7.14943C16.0157 7.28736 15.9948 7.4252 15.9477 7.55501C15.9006 7.68482 15.8283 7.80404 15.735 7.9058C15.6479 7.9985 15.5421 8.07163 15.4246 8.12035C15.3071 8.16906 15.1806 8.19225 15.0534 8.18837C14.8755 8.1856 14.7 8.14599 14.5381 8.07202C14.1466 7.89858 13.7439 7.75138 13.3329 7.6314C12.9504 7.53138 12.5562 7.48388 12.161 7.49021C11.6487 7.47301 11.1419 7.59967 10.698 7.85584C10.5112 7.96936 10.3585 8.13125 10.2561 8.32439C10.1537 8.51753 10.1054 8.73474 10.1162 8.95309C10.1132 9.23709 10.2205 9.51118 10.4154 9.71771C10.654 9.96376 10.9357 10.1638 11.2466 10.3079C11.5874 10.4741 12.0778 10.6985 12.776 10.9812L12.9921 11.0642C13.6514 11.3155 14.2836 11.633 14.8789 12.0118C15.3532 12.3192 15.7535 12.728 16.0509 13.2087C16.3432 13.7129 16.49 14.2884 16.4748 14.8711C16.4983 15.5848 16.2914 16.2872 15.8846 16.8742C15.4673 17.4389 14.8872 17.8623 14.2223 18.0878C13.4358 18.3682 12.605 18.5034 11.7702 18.4867C10.6289 18.5246 9.49339 18.3088 8.44548 17.855C8.17704 17.7342 7.94075 17.552 7.75567 17.3231C7.61001 17.1074 7.53453 16.8519 7.53957 16.5916C7.53046 16.4545 7.55182 16.3171 7.60212 16.1892C7.65241 16.0613 7.7304 15.9461 7.83048 15.852C8.03826 15.668 8.30968 15.5725 8.58686 15.5859C8.89674 15.5903 9.2013 15.6672 9.47617 15.8103C9.81695 15.9766 10.0829 16.1096 10.3074 16.1926C10.5299 16.2866 10.7609 16.359 10.9973 16.4087C11.2889 16.4751 11.5876 16.5058 11.8867 16.5002C12.416 16.5392 12.9431 16.3987 13.3827 16.1012C13.5488 15.9741 13.6816 15.8087 13.7699 15.6191C13.8582 15.4295 13.8993 15.2214 13.8897 15.0124C13.8977 14.7046 13.7843 14.4061 13.5739 14.1812C13.3028 13.9048 12.9884 13.6746 12.6429 13.4997C12.2357 13.2835 11.6539 13.0259 10.9142 12.71C10.2495 12.4453 9.61204 12.1168 9.0107 11.7292C8.56107 11.4301 8.16911 11.0986 7.89695 10.6321Z" fill="white"/>
</g>
<defs>
<clipPath id="clip0_3709_2106">
<rect width="24" height="24" fill="white"/>
</clipPath>
</defs>
</svg>
