<svg xmlns:xlink="http://www.w3.org/1999/xlink"  viewBox="0 0 1441 866" fill="none" xmlns="http://www.w3.org/2000/svg"><path opacity="0.8" d="M1400.09 1.296C1397.11 -0.432 1392.29 -0.432 1389.31 1.296C1387.08 2.592 1386.53 4.488 1387.66 6.072L1220.78 102.408V224.016L1180.13 247.488V379.752L1040.88 460.152L1019.18 447.624L1126.56 385.632V313.128L1126.13 312.888L1004.04 242.4V217.8L1073.09 177.936C1076.06 179.184 1080.24 179.04 1082.93 177.504C1085.9 175.776 1085.9 172.992 1082.93 171.288C1079.95 169.56 1075.13 169.56 1072.15 171.288C1069.46 172.848 1069.22 175.248 1071.38 176.976L1002.34 216.84V243.408L1002.77 243.648L1124.86 314.136V384.672L1043.74 431.52V401.304L1080.94 379.824C1083.91 381.072 1088.09 380.928 1090.78 379.392C1093.75 377.664 1093.75 374.88 1090.78 373.176C1087.8 371.448 1082.98 371.448 1080 373.176C1077.31 374.736 1077.07 377.136 1079.23 378.864L1042.03 400.344V432.528L1017.5 446.688L988.488 429.936V377.328L1043.21 345.72V309.36L1042.78 309.12L927.552 242.592C929.712 240.864 929.472 238.464 926.784 236.904C923.808 235.176 918.984 235.176 916.008 236.904C913.032 238.632 913.032 241.416 916.008 243.12C918.696 244.68 922.872 244.8 925.848 243.552L1041.48 310.32V344.712L988.464 375.336V339.072L988.032 338.832L917.544 298.128C919.704 296.4 919.464 294 916.776 292.44C913.8 290.712 908.976 290.712 906 292.44C903.024 294.168 903.024 296.952 906 298.656C908.688 300.216 912.864 300.336 915.84 299.088L986.76 340.032V428.904L966.384 417.144L932.808 436.536L902.4 418.968V376.296L901.968 376.056L821.568 329.64V289.416C823.224 289.32 824.832 288.912 826.104 288.168C829.08 286.44 829.08 283.656 826.104 281.952C823.128 280.224 818.304 280.224 815.328 281.952C812.352 283.68 812.352 286.464 815.328 288.168C816.6 288.912 818.208 289.296 819.864 289.416V330.624L820.296 330.864L900.696 377.28V417.984L769.848 342.432V262.344L840.816 221.376H905.952L906.144 221.256L1017.91 156.744C1020.89 157.992 1025.06 157.848 1027.75 156.312C1030.73 154.584 1030.73 151.8 1027.75 150.096C1024.78 148.368 1019.95 148.368 1016.98 150.096C1014.29 151.656 1014.05 154.056 1016.21 155.784L905.496 219.696H843.768L1049.09 101.16C1052.06 102.408 1056.24 102.264 1058.93 100.728C1061.9 99 1061.9 96.216 1058.93 94.512C1055.95 92.784 1051.13 92.784 1048.15 94.512C1045.46 96.072 1045.22 98.472 1047.38 100.2L768.096 261.36V343.416L768.528 343.656L931.08 437.496L898.368 456.384L620.832 296.16V200.544L620.4 200.304L526.008 145.824C528.168 144.096 527.928 141.696 525.24 140.136C522.264 138.408 517.44 138.408 514.464 140.136C511.488 141.864 511.488 144.648 514.464 146.352C517.152 147.912 521.328 148.032 524.304 146.784L619.104 201.528V297.144L619.536 297.384L896.64 457.368L865.488 475.344L591.024 316.872H427.344L325.056 257.808V167.04C326.136 166.824 327.144 166.488 328.008 166.008C330.984 164.28 330.984 161.496 328.008 159.792C325.032 158.064 320.208 158.064 317.232 159.792C314.256 161.52 314.256 164.304 317.232 166.008C318.912 166.968 321.168 167.376 323.352 167.256V258.792L323.784 259.032L426.912 318.576H590.592L822.288 452.352H775.68L696.6 406.704H635.688L635.496 406.824L551.016 455.592C548.04 454.344 543.864 454.488 541.176 456.024C538.2 457.752 538.2 460.536 541.176 462.24C544.152 463.968 548.976 463.968 551.952 462.24C554.64 460.68 554.88 458.28 552.72 456.552L636.144 408.384H696.144L775.224 454.032H825.24L863.808 476.304L780.672 524.304L757.032 510.648V474.816L696.984 440.136C699.144 438.408 698.904 436.008 696.216 434.448C693.24 432.72 688.416 432.72 685.44 434.448C682.464 436.176 682.464 438.96 685.44 440.664C688.128 442.224 692.304 442.344 695.28 441.096L755.328 475.776V509.64L691.272 472.656H660.936L660.744 472.776L624.576 493.656C621.6 492.408 617.424 492.552 614.736 494.088C611.76 495.816 611.76 498.6 614.736 500.304C617.712 502.032 622.536 502.032 625.512 500.304C628.2 498.744 628.44 496.344 626.28 494.616L661.392 474.36H690.792L778.944 525.24L762.936 534.48L814.032 563.976L790.104 577.8H753.912L728.016 562.848C730.08 561.144 729.792 558.768 727.152 557.232C724.176 555.504 719.352 555.504 716.376 557.232C713.4 558.96 713.4 561.744 716.376 563.448C719.088 565.008 723.336 565.128 726.336 563.832L753.456 579.48H787.152L726.12 614.712L582.552 531.816H479.232L479.04 531.936L420.864 565.512C417.888 564.264 413.712 564.408 411.024 565.944C408.048 567.672 408.048 570.456 411.024 572.16C414 573.888 418.824 573.888 421.8 572.16C424.488 570.6 424.728 568.2 422.568 566.472L479.688 533.496H582.072L692.808 597.432H645.408L599.088 570.696C601.248 568.968 601.008 566.568 598.32 565.008C595.344 563.28 590.52 563.28 587.544 565.008C584.568 566.736 584.568 569.52 587.544 571.224C590.232 572.784 594.408 572.904 597.384 571.656L644.952 599.136H695.76L724.392 615.672L651.504 657.744H418.56L237.576 553.248C239.736 551.52 239.496 549.12 236.808 547.56C233.832 545.832 229.008 545.832 226.032 547.56C223.056 549.288 223.056 552.072 226.032 553.776C228.72 555.336 232.896 555.456 235.872 554.208L418.104 659.424H648.552L619.632 676.128H447.192L447 676.248L361.968 725.352C358.992 724.104 354.816 724.248 352.128 725.784C349.152 727.512 349.152 730.296 352.128 732C355.104 733.728 359.928 733.728 362.904 732C365.592 730.44 365.832 728.04 363.672 726.312L447.672 677.832H620.112L620.304 677.712L815.736 564.888L837.432 577.416L631.968 696.048H481.704L481.512 696.168L300.024 800.952H48.576L0 773.064V775.032L48.144 802.824H300.504L300.696 802.704L414.6 736.944V775.872L339.528 819.216C336.552 817.968 332.376 818.112 329.688 819.648C326.712 821.376 326.712 824.16 329.688 825.864C332.664 827.592 337.488 827.592 340.464 825.864C343.152 824.304 343.392 821.904 341.232 820.176L416.304 776.832V736.176H415.92L482.208 697.896H632.472L632.664 697.776L839.184 578.544L863.832 592.776L463.128 824.112V865.92H464.832V825.096L865.536 593.76L895.992 611.352L689.304 730.68V752.016L652.656 773.184V822.264L581.592 863.304C578.616 862.056 574.44 862.2 571.752 863.736C570.672 864.36 569.976 865.128 569.688 865.944H584.544C584.328 865.344 583.92 864.792 583.296 864.288L654.36 823.248V774.168L689.304 753.984V832.56L709.92 844.464L672.768 865.92H676.176L711.624 845.448L747.072 865.92H750.48L690.96 831.6V731.688L897.648 612.36L925.368 628.368L779.112 712.8C776.136 711.552 771.96 711.696 769.272 713.232C766.296 714.96 766.296 717.744 769.272 719.448C772.248 721.176 777.072 721.176 780.048 719.448C782.736 717.888 782.976 715.488 780.816 713.76L927.096 629.304L953.856 644.76L778.872 745.776H731.328C731.04 744.96 730.344 744.168 729.24 743.52C726.264 741.792 721.44 741.792 718.464 743.52C715.488 745.248 715.488 748.032 718.464 749.736C721.44 751.464 726.264 751.464 729.24 749.736C730.344 749.088 731.04 748.296 731.328 747.48H779.328L779.52 747.36L955.536 645.744L966.336 651.984L974.64 647.184L1016.57 671.4V705.096L981.936 725.088V724.992H927.576L927.384 725.112L867.744 759.552C864.768 758.304 860.592 758.448 857.904 759.984C854.928 761.712 854.928 764.496 857.904 766.2C860.88 767.928 865.704 767.928 868.68 766.2C871.368 764.64 871.608 762.24 869.448 760.512L928.032 726.696H979.128L877.296 785.472C874.296 784.128 870 784.224 867.24 785.808C864.264 787.536 864.264 790.32 867.24 792.024C870.216 793.752 875.04 793.752 878.016 792.024C880.632 790.512 880.944 788.184 878.952 786.456L1005.96 713.136V729.336L930.408 772.968V803.76L868.896 839.28C865.92 838.032 861.744 838.176 859.056 839.712C856.08 841.44 856.08 844.224 859.056 845.928C862.032 847.656 866.856 847.656 869.832 845.928C872.52 844.368 872.76 841.968 870.6 840.24L932.112 804.72V774L1007.66 730.368V712.2L1018.25 706.08V670.416L976.32 646.224L1003.87 630.312L1090.13 680.112V736.728L1031.54 770.544C1028.54 769.2 1024.25 769.296 1021.49 770.88C1018.51 772.608 1018.51 775.392 1021.49 777.096C1024.46 778.824 1029.29 778.824 1032.26 777.096C1034.88 775.584 1035.19 773.256 1033.2 771.528L1090.1 738.672V784.416L1045.15 810.384V865.92H1046.86V811.368L1090.1 786.384V865.896H1091.81V679.104L1005.55 629.304L1036.49 611.448L1149.24 676.536V831.576L1203.43 862.872V865.92H1205.14V861.888L1150.94 830.592V675.552L1038.19 610.464L1061.11 597.216L1213.27 685.056V817.32L1297.39 865.896H1300.8L1214.98 816.336V684.072L1062.82 596.232L1099.97 574.776L1353.14 720.936V786.744L1440 836.904V834.936L1354.94 785.832V720.024L1212.55 637.8H1325.16L1440 704.088V702.12L1325.62 636.072H1209.6L1101.79 573.84L1144.99 548.904L1237.63 602.4H1386.43L1440 633.312V631.344L1428.26 624.576H1440V622.872H1425.31L1386.91 600.696H1238.11L1212.17 585.72H1275.43L1275.62 585.6L1307.35 567.288H1439.57L1440 567.552V565.584H1310.3L1346.02 544.968C1348.99 546.216 1353.17 546.072 1355.86 544.536C1358.83 542.808 1358.83 540.024 1355.86 538.32C1352.88 536.592 1348.06 536.592 1345.08 538.32C1342.39 539.88 1342.15 542.28 1344.31 544.008L1274.95 584.064H1209.19L1146.65 547.968L1169.76 534.624L1154.88 526.032H1198.1L1254.6 558.648C1252.44 560.376 1252.68 562.776 1255.37 564.336C1258.34 566.064 1263.17 566.064 1266.14 564.336C1269.12 562.608 1269.12 559.824 1266.14 558.12C1263.46 556.56 1259.28 556.44 1256.3 557.688L1198.56 524.352H1151.93L1120.3 506.088L1139.74 494.856H1174.22L1204.56 477.336H1227.19L1278.31 506.856C1276.01 508.584 1276.2 511.056 1278.94 512.64C1281.91 514.368 1286.74 514.368 1289.71 512.64C1292.69 510.912 1292.69 508.128 1289.71 506.424C1287.07 504.912 1283.02 504.744 1280.04 505.896L1227.65 475.656H1204.1L1173.77 493.176H1142.69L1204.87 457.272H1238.45L1308.43 497.664H1439.98V495.96H1308.89L1238.9 455.568H1204.42L1204.22 455.688L1118.59 505.128L1096.13 492.168L1192.9 436.296H1261.15L1317.46 468.792H1440V467.088H1317.94L1264.58 436.296H1440V434.592H1192.46L1192.27 434.712L1094.47 491.184L1068.94 476.448L1203.86 398.544H1440V396.84H1267.92L1440 297.48V295.512L1264.51 396.84H1205.11L1333.03 322.992V306.72L1394.26 271.392C1397.23 272.64 1401.41 272.496 1404.1 270.96C1407.07 269.232 1407.07 266.448 1404.1 264.744C1401.12 263.016 1396.3 263.016 1393.32 264.744C1390.63 266.304 1390.39 268.704 1392.55 270.432L1359.22 289.68V245.064L1440 198.264V196.296L1357.49 243.936V290.52L1331.3 305.64V321.912L1202.33 396.384L1202.76 397.128L1067.21 475.392L1042.56 461.16L1181.81 380.76V248.496L1440 99.408V97.44L1222.49 223.032V103.392L1388.98 7.272C1389.1 7.344 1389.19 7.44 1389.31 7.512C1392.29 9.24 1397.11 9.24 1400.09 7.512C1403.06 5.784 1403.06 3 1400.09 1.296ZM1166.38 534.576L966.36 650.064L766.368 534.6L966.384 419.112L1166.38 534.576Z" fill="url(#paint0_radial_1792_18665)"></path><defs><linearGradient id="rainbow" x1="0%" y1="0%" x2="100%" y2="0%"><stop offset="0%" stop-color="#00F0FF"></stop><stop offset="20%" stop-color="#9E4BBE"></stop><stop offset="40%" stop-color="#00F0FF"></stop><stop offset="60%" stop-color="#00F0FF"></stop><stop offset="80%" stop-color="#00F0FF"></stop><stop offset="100%" stop-color="#9E4BBE"></stop></linearGradient></defs><path class="path" d="M 955 645 L 779 747 L 732 746" stroke="url(#rainbow)" stroke-width="2" opacity="0.8"></path><path class="path" d="M 926 628 L 775 716" stroke="url(#rainbow)" stroke-width="2" opacity="0.8"></path><path class="path" d="M 896 612 L 690 731 L 690 831 L 750 868" stroke="url(#rainbow)" stroke-width="2" opacity="0.8"></path><path class="path" d="M 865 593 L 465 823 L 466 866" stroke="url(#rainbow)" stroke-width="2" opacity="0.8"></path><path class="path" d="M 896 612 L 690 731 L 690 753 L 653 774 L 654 823 L 583 864" stroke="url(#rainbow)" stroke-width="2" opacity="0.8"></path><path class="path" d="M 837 577 L 632 697 L 481 697 L 415 736 L 417 776 L 342 818" stroke="url(#rainbow)" stroke-width="2" opacity="0.8"></path><path class="path" d="M 837 577 L 632 697 L 481 697 L 415 736 L 300 803 L 48 801 L -1 773" stroke="url(#rainbow)" stroke-width="2" opacity="0.8"></path><path class="path" d="M 814 566 L 619 676 L 447 678 L 367 724" stroke="url(#rainbow)" stroke-width="2" opacity="0.8"></path><path class="path" d="M 814 566 L 789 579 L 754 579 L 724 562" stroke="url(#rainbow)" stroke-width="2" opacity="0.8"></path><path class="path" d="M 814 566 L 725 615 L 583 533 L 480 533 L 420 567" stroke="url(#rainbow)" stroke-width="2" opacity="0.8"></path><path class="path" d="M 814 566 L 725 615 L 695 598 L 646 599 L 595 571" stroke="url(#rainbow)" stroke-width="2" opacity="0.8"></path><path class="path" d="M 814 566 L 651 659 L 419 659 L 239 555" stroke="url(#rainbow)" stroke-width="2" opacity="0.8"></path><path class="path" d="M 681 476 L 660 473 L 624 496" stroke="url(#rainbow)" stroke-width="2" opacity="0.8"></path><path class="path" d="M 756 475 L 690 437" stroke="url(#rainbow)" stroke-width="2" opacity="0.8"></path><path class="path" d="M 776 453 L 697 408 L 636 408 L 547 459" stroke="url(#rainbow)" stroke-width="2" opacity="0.8"></path><path class="path" d="M 865 476 L 592 318 L 427 318 L 325 259 L 323 164" stroke="url(#rainbow)" stroke-width="2" opacity="0.8"></path><path class="path" d="M 898 457 L 621 298 L 621 202 L 522 145" stroke="url(#rainbow)" stroke-width="2" opacity="0.8"></path><path class="path" d="M 932 437 L 769 343 L 769 262 L 1052 99" stroke="url(#rainbow)" stroke-width="2" opacity="0.8"></path><path class="path" d="M 932 437 L 769 343 L 769 262 L 842 221 L 906 222 L 1021 155" stroke="url(#rainbow)" stroke-width="2" opacity="0.8"></path><path class="path" d="M 902 418 L 902 376 L 821 331 L 819 285" stroke="url(#rainbow)" stroke-width="2" opacity="0.8"></path><path class="path" d="M 1003 218 L 1078 174" stroke="url(#rainbow)" stroke-width="2" opacity="0.8"></path><path class="path" d="M 1042 460 L 1180 380 L 1182 248 L 1221 223 L 1222 103 L 1394 4" stroke="url(#rainbow)" stroke-width="2" opacity="0.8"></path><path class="path" d="M 1042 460 L 1180 380 L 1182 248 L 1440 99" stroke="url(#rainbow)" stroke-width="2" opacity="0.8"></path><path class="path" d="M 975 647 L 1018 670 L 1018 705 L 1007 714 L 873 788" stroke="url(#rainbow)" stroke-width="2" opacity="0.8"></path><path class="path" d="M 975 647 L 1018 670 L 1018 705 L 1007 713 L 1006 731 L 931 774 L 931 804 L 865 842" stroke="url(#rainbow)" stroke-width="2" opacity="0.8"></path><path class="path" d="M 975 647 L 1018 670 L 1018 705 L 1007 713 L 981 725 L 927 725 L 863 764" stroke="url(#rainbow)" stroke-width="2" opacity="0.8"></path><path class="path" d="M 1069 475 L 1204 396 L 1332 323 L 1331 305 L 1359 291 L 1359 245 L 1440 198" stroke="url(#rainbow)" stroke-width="2" opacity="0.8"></path><path class="path" d="M 1069 475 L 1204 396 L 1332 323 L 1331 305 L 1359 291 L 1395 269" stroke="url(#rainbow)" stroke-width="2" opacity="0.8"></path><path class="path" d="M 1203 397 L 1267 397 L 1440 296" stroke="url(#rainbow)" stroke-width="2" opacity="0.8"></path><path class="path" d="M 1203 397 L 1440 398" stroke="url(#rainbow)" stroke-width="2" opacity="0.8"></path><path class="path" d="M 1095 491 L 1193 436 L 1264 437 L 1440 434" stroke="url(#rainbow)" stroke-width="2" opacity="0.8"></path><path class="path" d="M 1095 491 L 1193 436 L 1264 437 L 1318 467 L 1440 467" stroke="url(#rainbow)" stroke-width="2" opacity="0.8"></path><path class="path" d="M 1004 630 L 1090 679 L 1090 737 L 1090 785 L 1090 867" stroke="url(#rainbow)" stroke-width="2" opacity="0.8"></path><path class="path" d="M 1004 630 L 1090 679 L 1090 737 L 1029 774" stroke="url(#rainbow)" stroke-width="2" opacity="0.8"></path><path class="path" d="M 1004 630 L 1090 679 L 1090 737 L 1090 785 L 1045 812 L 1047 867" stroke="url(#rainbow)" stroke-width="2" opacity="0.8"></path><path class="path" d="M 1037 610 L 1150 676 L 1150 831 L 1204 864" stroke="url(#rainbow)" stroke-width="2" opacity="0.8"></path><path class="path" d="M 1063 598 L 1214 685 L 1214 817 L 1299 866" stroke="url(#rainbow)" stroke-width="2" opacity="0.8"></path><path class="path" d="M 1101 574 L 1211 637 L 1354 721 L 1354 786 L 1440 836" stroke="url(#rainbow)" stroke-width="2" opacity="0.8"></path><path class="path" d="M 1101 574 L 1211 637 L 1326 637 L 1439 703" stroke="url(#rainbow)" stroke-width="2" opacity="0.8"></path><path class="path" d="M 1119 507 L 1141 493 L 1204 457 L 1238 456 L 1309 498 L 1440 496" stroke="url(#rainbow)" stroke-width="2" opacity="0.8"></path><path class="path" d="M 1119 507 L 1141 493 L 1174 493 L 1204 476 L 1227 477 L 1284 508" stroke="url(#rainbow)" stroke-width="2" opacity="0.8"></path><path class="path" d="M 1154 527 L 1198 526 L 1260 561" stroke="url(#rainbow)" stroke-width="2" opacity="0.8"></path><path class="path" d="M 1146 547 L 1211 586 L 1274 586 L 1309 567 L 1351 541" stroke="url(#rainbow)" stroke-width="2" opacity="0.8"></path><path class="path" d="M 1146 547 L 1211 586 L 1237 602 L 1387 602 L 1425 623 L 1441 633" stroke="url(#rainbow)" stroke-width="2" opacity="0.8"></path><path class="path" d="M 1146 547 L 1211 586 L 1237 602 L 1387 602 L 1425 623 L 1441 623" stroke="url(#rainbow)" stroke-width="2" opacity="0.8"></path><path class="path" d="M 1146 547 L 1211 586 L 1274 586 L 1309 567 L 1440 567" stroke="url(#rainbow)" stroke-width="2" opacity="0.8"></path><path d="M870.492 342.129L909.381 111.387L906.257 110.077L910.966 107.39V107.413C911.885 106.816 913.172 106.838 914.596 107.665L1225.44 287.137C1227.99 288.607 1229.92 292.397 1229.48 295.039L1190.27 527.618C1190.06 528.836 1189.46 529.64 1188.64 529.984L1184.04 532.649L1183.26 528.353L1183.52 528.422L874.558 350.054C871.962 348.561 870.032 344.77 870.492 342.129Z" fill="url(#paint1_linear_1792_18665)"></path><path d="M1223.67 293.408L1228.77 291.157C1229.34 292.466 1229.62 293.844 1229.43 294.993L1190.22 527.573C1190.02 528.79 1189.42 529.594 1188.59 529.939L1184 532.603L1183.22 528.308L1183.47 528.377L1167.83 519.349L1223.67 293.408Z" fill="url(#paint2_linear_1792_18665)"></path><path d="M869.643 352.833L1180.48 532.305C1182.87 533.683 1184.94 532.879 1185.35 530.398L1224.57 297.818C1225.02 295.177 1223.07 291.386 1220.52 289.916L909.681 110.445C907.292 109.067 905.225 109.871 904.811 112.352L865.6 344.931C865.163 347.573 867.093 351.34 869.643 352.833Z" fill="#24126A"></path><g opacity="0.51"><path d="M908.646 114.763L1220.96 294.992L1181.52 528.169L869.412 348.055L908.646 114.763Z" fill="#453C9E"></path></g><path d="M674.252 462.932L691.204 471.799L861.304 373.599C864.152 371.945 869.114 372.151 872.398 374.058L1165.81 543.422C1168.61 541.86 1181.4 535.704 1181.4 535.704L1175.2 545.788L1175.18 545.765C1174.92 546.477 1174.37 547.166 1173.43 547.695L994.282 651.132C991.433 652.786 986.472 652.579 983.187 650.673L682.958 477.358C681.603 476.577 680.776 475.635 680.431 474.67L680.408 474.693L674.252 462.932Z" fill="url(#paint3_linear_1792_18665)"></path><path d="M676.872 465.735L984.566 643.368C987.943 645.321 993.019 645.527 995.937 643.851L1179.54 537.84C1182.46 536.163 1182.09 533.223 1178.72 531.27L871.044 353.637C867.667 351.684 862.591 351.478 859.674 353.155L676.045 459.165C673.15 460.842 673.495 463.782 676.872 465.735Z" fill="url(#paint4_linear_1792_18665)"></path><path d="M676.871 464.356L984.566 641.99C987.942 643.942 993.019 644.149 995.936 642.472L1179.54 536.462C1180.58 535.865 1181.17 535.107 1181.4 534.303C1181.72 535.612 1181.15 536.898 1179.54 537.84L995.936 643.851C993.019 645.527 987.919 645.321 984.566 643.368L676.871 465.735C674.689 464.471 673.793 462.794 674.206 461.324C674.482 462.381 675.355 463.461 676.871 464.356Z" fill="white"></path><g opacity="0.8"><path d="M818.394 446.048L808.632 440.397C807.851 439.938 807.943 439.157 808.862 438.629L820.393 431.967C821.289 431.439 822.667 431.393 823.448 431.829L833.211 437.48C833.992 437.94 833.9 438.721 832.981 439.249L821.45 445.911C820.554 446.462 819.198 446.508 818.394 446.048Z" fill="#24126A"></path><path d="M833.487 454.754L823.725 449.104C822.944 448.644 823.035 447.863 823.954 447.335L835.486 440.673C836.381 440.145 837.76 440.099 838.541 440.535L848.303 446.186C849.084 446.646 848.992 447.427 848.074 447.955L836.542 454.617C835.646 455.168 834.268 455.214 833.487 454.754Z" fill="#24126A"></path><path d="M848.577 463.483L838.814 457.833C838.033 457.373 838.125 456.592 839.044 456.064L850.575 449.402C851.471 448.874 852.85 448.828 853.631 449.264L863.393 454.915C864.174 455.375 864.082 456.156 863.164 456.684L851.632 463.346C850.713 463.874 849.358 463.92 848.577 463.483Z" fill="#24126A"></path><path d="M869.435 456.27L859.673 450.643C858.892 450.183 858.984 449.402 859.903 448.874L869.573 443.292C870.469 442.764 871.847 442.718 872.628 443.154L882.391 448.805C883.172 449.264 883.08 450.045 882.161 450.574L872.491 456.156C871.595 456.684 870.216 456.73 869.435 456.27Z" fill="#24126A"></path><path d="M884.527 464.999L874.765 459.372C873.984 458.912 874.075 458.131 874.994 457.603L884.665 452.021C885.561 451.493 886.939 451.447 887.72 451.883L897.483 457.534C898.264 457.993 898.172 458.774 897.253 459.303L887.582 464.885C886.664 465.39 885.308 465.436 884.527 464.999Z" fill="#24126A"></path><path d="M899.596 473.705L889.833 468.078C889.052 467.618 889.144 466.837 890.063 466.309L899.733 460.727C900.629 460.199 902.008 460.153 902.789 460.589L912.551 466.217C913.332 466.676 913.24 467.457 912.321 467.986L902.651 473.568C901.755 474.096 900.377 474.142 899.596 473.705Z" fill="#24126A"></path><path d="M914.688 482.411L904.926 476.76C904.145 476.301 904.237 475.52 905.155 474.992L914.826 469.41C915.722 468.881 917.1 468.835 917.881 469.272L927.644 474.9C928.425 475.359 928.333 476.14 927.414 476.668L917.743 482.25C916.848 482.802 915.469 482.87 914.688 482.411Z" fill="#24126A"></path><path d="M929.78 491.117L920.018 485.466C919.237 485.007 919.328 484.226 920.247 483.698L929.918 478.116C930.814 477.587 932.192 477.541 932.973 477.978L942.736 483.629C943.517 484.088 943.425 484.869 942.506 485.397L932.835 490.979C931.916 491.508 930.561 491.577 929.78 491.117Z" fill="#24126A"></path><path d="M944.849 499.823L935.086 494.172C934.305 493.712 934.397 492.931 935.316 492.403L944.986 486.821C945.882 486.293 947.26 486.247 948.041 486.683L957.804 492.334C958.585 492.794 958.493 493.575 957.574 494.103L947.904 499.685C947.008 500.213 945.63 500.282 944.849 499.823Z" fill="#24126A"></path><path d="M959.941 508.529L950.179 502.878C949.398 502.419 949.49 501.638 950.408 501.109L960.079 495.527C960.975 494.999 962.353 494.953 963.134 495.389L972.897 501.017C973.678 501.477 973.586 502.258 972.667 502.786L962.996 508.368C962.101 508.919 960.722 508.988 959.941 508.529Z" fill="#24126A"></path><path d="M975.034 517.235L965.271 511.584C964.49 511.125 964.582 510.344 965.501 509.815L975.172 504.233C976.068 503.705 977.446 503.659 978.227 504.095L987.99 509.746C988.771 510.206 988.679 510.987 987.76 511.515L978.089 517.097C977.17 517.648 975.815 517.694 975.034 517.235Z" fill="#24126A"></path><path d="M990.101 525.941L980.339 520.313C979.558 519.854 979.65 519.073 980.569 518.544L990.239 512.962C991.135 512.434 992.513 512.388 993.294 512.824L1003.06 518.475C1003.84 518.935 1003.75 519.716 1002.83 520.244L993.157 525.826C992.261 526.354 990.882 526.4 990.101 525.941Z" fill="#24126A"></path><path d="M1005.19 534.67L995.432 529.019C994.651 528.56 994.742 527.779 995.661 527.25L1005.33 521.668C1006.23 521.14 1007.61 521.094 1008.39 521.531L1018.15 527.181C1018.93 527.641 1018.84 528.422 1017.92 528.95L1008.25 534.532C1007.35 535.06 1005.98 535.106 1005.19 534.67Z" fill="#24126A"></path><path d="M891.647 452.158L881.885 446.507C881.104 446.048 881.196 445.267 882.114 444.739L891.785 439.157C892.681 438.628 894.059 438.582 894.84 439.019L904.603 444.67C905.384 445.129 905.292 445.91 904.373 446.438L894.702 452.02C893.807 452.549 892.451 452.618 891.647 452.158Z" fill="#24126A"></path><path d="M876.35 443.315L866.588 437.664C865.807 437.205 865.899 436.424 866.818 435.895L876.488 430.313C877.384 429.785 878.762 429.739 879.543 430.176L889.306 435.826C890.087 436.286 889.995 437.067 889.076 437.595L879.406 443.177C878.51 443.705 877.131 443.774 876.35 443.315Z" fill="#24126A"></path><path d="M861.004 434.471L839.963 422.32C839.182 421.86 839.274 421.079 840.193 420.551L849.863 414.969C850.759 414.441 852.137 414.395 852.918 414.831L873.96 426.983C874.741 427.442 874.649 428.223 873.73 428.752L864.059 434.334C863.163 434.862 861.808 434.931 861.004 434.471Z" fill="#24126A"></path><path d="M871.732 423.697L854.665 413.843C853.884 413.383 853.976 412.602 854.895 412.074L864.565 406.492C865.461 405.964 866.84 405.918 867.621 406.354L884.688 416.209C885.469 416.668 885.377 417.449 884.458 417.978L874.787 423.559C873.892 424.088 872.513 424.157 871.732 423.697Z" fill="#24126A"></path><path d="M906.74 460.864L896.978 455.213C896.196 454.754 896.288 453.973 897.207 453.445L906.878 447.863C907.774 447.334 909.152 447.288 909.933 447.725L919.696 453.353C920.477 453.812 920.385 454.593 919.466 455.121L909.795 460.703C908.899 461.255 907.521 461.324 906.74 460.864Z" fill="#24126A"></path><path d="M921.833 469.57L912.07 463.919C911.289 463.46 911.381 462.679 912.3 462.151L921.971 456.569C922.867 456.04 924.245 455.994 925.026 456.431L934.788 462.082C935.569 462.541 935.478 463.322 934.559 463.851L924.888 469.432C923.992 469.961 922.614 470.03 921.833 469.57Z" fill="#24126A"></path><path d="M936.9 478.276L927.138 472.648C926.357 472.189 926.449 471.408 927.367 470.88L937.038 465.298C937.934 464.769 939.312 464.723 940.093 465.16L949.856 470.811C950.637 471.27 950.545 472.051 949.626 472.58L939.955 478.161C939.06 478.69 937.704 478.736 936.9 478.276Z" fill="#24126A"></path><path d="M951.993 486.982L942.23 481.332C941.449 480.872 941.541 480.091 942.46 479.563L952.131 473.981C953.027 473.453 954.405 473.407 955.186 473.843L964.949 479.494C965.73 479.953 965.638 480.734 964.719 481.263L955.048 486.845C954.152 487.396 952.774 487.442 951.993 486.982Z" fill="#24126A"></path><path d="M967.086 495.711L957.323 490.061C956.542 489.601 956.634 488.82 957.553 488.292L967.224 482.71C968.12 482.182 969.498 482.136 970.279 482.572L980.041 488.223C980.822 488.682 980.731 489.463 979.812 489.992L970.141 495.574C969.245 496.102 967.867 496.148 967.086 495.711Z" fill="#24126A"></path><path d="M982.153 504.417L972.391 498.766C971.61 498.307 971.701 497.526 972.62 496.997L982.291 491.415C983.187 490.887 984.565 490.841 985.346 491.278L995.109 496.928C995.89 497.388 995.798 498.169 994.879 498.697L985.208 504.279C984.312 504.807 982.957 504.853 982.153 504.417Z" fill="#24126A"></path><path d="M997.246 513.123L987.483 507.495C986.702 507.036 986.794 506.255 987.713 505.726L997.384 500.144C998.28 499.616 999.658 499.57 1000.44 500.007L1010.2 505.657C1010.98 506.117 1010.89 506.898 1009.97 507.426L1000.3 513.008C999.405 513.513 998.027 513.582 997.246 513.123Z" fill="#24126A"></path><path d="M1012.34 521.829L1002.57 516.178C1001.79 515.719 1001.89 514.938 1002.8 514.409L1012.47 508.828C1013.37 508.299 1014.75 508.253 1015.53 508.69L1025.29 514.318C1026.07 514.777 1025.98 515.558 1025.06 516.086L1015.39 521.668C1014.5 522.22 1013.12 522.288 1012.34 521.829Z" fill="#24126A"></path><path d="M1027.41 530.535L1017.64 524.884C1016.86 524.425 1016.96 523.644 1017.87 523.116L1027.54 517.534C1028.44 517.005 1029.82 516.959 1030.6 517.396L1040.36 523.024C1041.14 523.483 1041.05 524.264 1040.13 524.792L1030.46 530.374C1029.57 530.926 1028.21 530.995 1027.41 530.535Z" fill="#24126A"></path><path d="M1054.23 546.017L1032.92 533.705C1032.14 533.246 1032.23 532.465 1033.15 531.936L1042.82 526.354C1043.71 525.826 1045.09 525.78 1045.87 526.217L1067.19 538.529C1067.97 538.988 1067.88 539.769 1066.96 540.298L1057.29 545.88C1056.39 546.408 1055.02 546.477 1054.23 546.017Z" fill="#24126A"></path><path d="M1083.59 529.065L1065.61 518.682C1064.83 518.223 1064.92 517.442 1065.84 516.913L1075.51 511.331C1076.4 510.803 1077.78 510.757 1078.56 511.194L1096.55 521.576C1097.33 522.036 1097.24 522.817 1096.32 523.345L1086.65 528.927C1085.75 529.455 1084.37 529.524 1083.59 529.065Z" fill="#24126A"></path><path d="M933.157 459.164L923.394 453.514C922.613 453.054 922.705 452.273 923.624 451.745L933.295 446.163C934.191 445.635 935.569 445.589 936.35 446.025L946.113 451.676C946.894 452.135 946.802 452.916 945.883 453.445L936.212 459.027C935.316 459.555 933.938 459.624 933.157 459.164Z" fill="#24126A"></path><path d="M917.698 450.229L907.936 444.578C907.155 444.119 907.246 443.338 908.165 442.809L917.836 437.227C918.732 436.699 920.11 436.653 920.891 437.09L930.654 442.717C931.435 443.177 931.343 443.958 930.424 444.486L920.753 450.068C919.857 450.642 918.479 450.688 917.698 450.229Z" fill="#24126A"></path><path d="M902.238 441.316L892.476 435.688C891.695 435.229 891.786 434.448 892.705 433.92L902.376 428.338C903.272 427.809 904.65 427.764 905.431 428.2L915.194 433.851C915.975 434.31 915.883 435.091 914.964 435.62L905.293 441.201C904.397 441.707 903.019 441.776 902.238 441.316Z" fill="#24126A"></path><path d="M886.777 432.381L877.015 426.753C876.234 426.294 876.325 425.513 877.244 424.984L886.915 419.402C887.811 418.874 889.189 418.828 889.97 419.264L899.733 424.915C900.514 425.375 900.422 426.156 899.503 426.684L889.832 432.266C888.936 432.794 887.558 432.84 886.777 432.381Z" fill="#24126A"></path><path d="M948.249 467.871L938.486 462.22C937.705 461.76 937.797 460.979 938.716 460.451L948.387 454.869C949.283 454.341 950.661 454.295 951.442 454.731L961.204 460.382C961.985 460.841 961.894 461.622 960.975 462.151L951.304 467.733C950.408 468.261 949.03 468.33 948.249 467.871Z" fill="#24126A"></path><path d="M963.317 476.577L953.555 470.949C952.774 470.489 952.866 469.708 953.784 469.18L963.455 463.598C964.351 463.07 965.729 463.024 966.51 463.46L976.273 469.111C977.054 469.57 976.962 470.351 976.043 470.88L966.372 476.462C965.477 476.967 964.121 477.036 963.317 476.577Z" fill="#24126A"></path><path d="M978.41 485.283L968.647 479.632C967.866 479.172 967.958 478.391 968.877 477.863L978.548 472.281C979.444 471.753 980.822 471.707 981.603 472.143L991.366 477.794C992.147 478.254 992.055 479.035 991.136 479.563L981.465 485.145C980.569 485.696 979.191 485.742 978.41 485.283Z" fill="#24126A"></path><path d="M993.502 493.989L983.739 488.338C982.958 487.878 983.05 487.097 983.969 486.569L993.64 480.987C994.536 480.459 995.914 480.413 996.695 480.849L1006.46 486.5C1007.24 486.96 1007.15 487.741 1006.23 488.269L996.557 493.851C995.661 494.402 994.283 494.448 993.502 493.989Z" fill="#24126A"></path><path d="M1008.57 502.717L998.808 497.066C998.027 496.607 998.118 495.826 999.037 495.298L1008.71 489.716C1009.6 489.187 1010.98 489.141 1011.76 489.578L1021.53 495.206C1022.31 495.665 1022.21 496.446 1021.3 496.975L1011.63 502.556C1010.73 503.108 1009.37 503.154 1008.57 502.717Z" fill="#24126A"></path><path d="M1023.66 511.423L1013.9 505.772C1013.12 505.313 1013.21 504.532 1014.13 504.004L1023.8 498.422C1024.7 497.893 1026.07 497.848 1026.86 498.284L1036.62 503.935C1037.4 504.394 1037.31 505.175 1036.39 505.704L1026.72 511.285C1025.82 511.814 1024.44 511.86 1023.66 511.423Z" fill="#24126A"></path><path d="M1038.75 520.129L1028.99 514.478C1028.21 514.019 1028.3 513.238 1029.22 512.71L1038.89 507.128C1039.79 506.599 1041.16 506.554 1041.95 506.99L1051.71 512.641C1052.49 513.1 1052.4 513.881 1051.48 514.41L1041.81 519.992C1040.89 520.52 1039.53 520.589 1038.75 520.129Z" fill="#24126A"></path><path d="M1053.82 528.835L1044.06 523.185C1043.28 522.725 1043.37 521.944 1044.29 521.416L1053.96 515.834C1054.86 515.306 1056.24 515.26 1057.02 515.696L1066.78 521.324C1067.56 521.783 1067.47 522.564 1066.55 523.093L1056.88 528.675C1055.98 529.226 1054.63 529.295 1053.82 528.835Z" fill="#24126A"></path><path d="M1068.91 537.541L1059.15 531.891C1058.37 531.431 1058.46 530.65 1059.38 530.122L1069.05 524.54C1069.95 524.012 1071.33 523.966 1072.11 524.402L1081.87 530.053C1082.65 530.512 1082.56 531.293 1081.64 531.822L1071.97 537.404C1071.07 537.932 1069.69 538.001 1068.91 537.541Z" fill="#24126A"></path><path d="M925.209 437.618L915.446 431.967C914.665 431.508 914.757 430.727 915.676 430.199L925.347 424.617C926.243 424.088 927.621 424.042 928.402 424.479L938.164 430.13C938.945 430.589 938.854 431.37 937.935 431.898L928.264 437.48C927.368 438.009 925.99 438.078 925.209 437.618Z" fill="#24126A"></path><path d="M910.208 428.958L900.445 423.307C899.664 422.848 899.756 422.067 900.675 421.538L910.346 415.956C911.242 415.428 912.62 415.382 913.401 415.819L923.163 421.469C923.944 421.929 923.853 422.71 922.934 423.238L913.263 428.82C912.367 429.348 910.989 429.417 910.208 428.958Z" fill="#24126A"></path><path d="M895.21 420.298L885.447 414.67C884.666 414.211 884.758 413.43 885.677 412.902L895.348 407.32C896.244 406.791 897.622 406.745 898.403 407.182L908.165 412.833C908.946 413.292 908.855 414.073 907.936 414.601L898.265 420.183C897.346 420.689 895.991 420.735 895.21 420.298Z" fill="#24126A"></path><path d="M880.187 411.615L870.425 405.987C869.644 405.528 869.736 404.747 870.654 404.219L880.325 398.637C881.221 398.108 882.599 398.062 883.38 398.499L893.143 404.127C893.924 404.586 893.832 405.367 892.913 405.895L883.242 411.477C882.347 412.029 880.968 412.075 880.187 411.615Z" fill="#24126A"></path><path d="M895.623 402.725L885.86 397.098C885.079 396.638 885.171 395.857 886.09 395.329L889.283 393.491C890.179 392.963 891.557 392.917 892.338 393.353L902.101 399.004C902.882 399.464 902.79 400.245 901.871 400.773L898.678 402.611C897.782 403.116 896.404 403.162 895.623 402.725Z" fill="#24126A"></path><path d="M915.218 414.027L905.455 408.376C904.674 407.916 904.766 407.135 905.685 406.607L908.878 404.769C909.774 404.241 911.152 404.195 911.933 404.632L921.695 410.282C922.476 410.742 922.385 411.523 921.466 412.051L918.273 413.889C917.354 414.417 915.999 414.486 915.218 414.027Z" fill="#24126A"></path><path d="M930.148 422.664L920.386 417.036C919.605 416.577 919.697 415.796 920.615 415.267L923.808 413.43C924.704 412.901 926.082 412.855 926.863 413.292L936.626 418.943C937.407 419.402 937.315 420.183 936.396 420.711L933.203 422.549C932.308 423.054 930.929 423.1 930.148 422.664Z" fill="#24126A"></path><path d="M945.102 431.278L935.34 425.627C934.559 425.167 934.651 424.386 935.57 423.858L938.762 422.02C939.658 421.492 941.037 421.446 941.818 421.883L951.58 427.533C952.361 427.993 952.269 428.774 951.35 429.302L948.158 431.14C947.262 431.668 945.883 431.737 945.102 431.278Z" fill="#24126A"></path><path d="M960.056 439.915L950.293 434.287C949.512 433.828 949.604 433.047 950.523 432.518L953.716 430.681C954.611 430.152 955.99 430.106 956.771 430.543L966.533 436.194C967.314 436.653 967.222 437.434 966.304 437.962L963.111 439.8C962.192 440.305 960.837 440.374 960.056 439.915Z" fill="#24126A"></path><path d="M1043.49 488.085L1033.72 482.434C1032.94 481.975 1033.03 481.194 1033.95 480.665L1037.15 478.828C1038.04 478.299 1039.42 478.253 1040.2 478.69L1049.96 484.341C1050.74 484.8 1050.65 485.581 1049.73 486.109L1046.54 487.947C1045.65 488.475 1044.27 488.544 1043.49 488.085Z" fill="#24126A"></path><path d="M1058.44 496.722L1048.68 491.071C1047.9 490.612 1047.99 489.831 1048.91 489.302L1052.1 487.465C1053 486.936 1054.37 486.89 1055.15 487.327L1064.92 492.978C1065.7 493.437 1065.61 494.218 1064.69 494.746L1061.49 496.584C1060.6 497.113 1059.22 497.181 1058.44 496.722Z" fill="#24126A"></path><path d="M1073.39 505.336L1063.63 499.685C1062.85 499.226 1062.94 498.445 1063.86 497.916L1067.05 496.079C1067.95 495.55 1069.33 495.504 1070.11 495.941L1079.87 501.592C1080.65 502.051 1080.56 502.832 1079.64 503.36L1076.45 505.198C1075.53 505.749 1074.17 505.795 1073.39 505.336Z" fill="#24126A"></path><path d="M1088.32 513.973L1078.56 508.345C1077.78 507.886 1077.87 507.105 1078.79 506.576L1081.98 504.739C1082.88 504.21 1084.26 504.164 1085.04 504.601L1094.8 510.252C1095.58 510.711 1095.49 511.492 1094.57 512.02L1091.38 513.858C1090.48 514.363 1089.11 514.432 1088.32 513.973Z" fill="#24126A"></path><path d="M940.302 446.324L930.539 440.673C929.758 440.214 929.85 439.433 930.769 438.905L940.439 433.323C941.335 432.794 942.714 432.748 943.495 433.185L953.257 438.836C954.038 439.295 953.946 440.076 953.027 440.604L943.357 446.186C942.461 446.738 941.083 446.784 940.302 446.324Z" fill="#24126A"></path><path d="M955.391 455.03L945.629 449.379C944.848 448.919 944.94 448.138 945.859 447.61L955.529 442.028C956.425 441.5 957.803 441.454 958.584 441.89L968.347 447.518C969.128 447.978 969.036 448.759 968.117 449.287L958.447 454.869C957.528 455.443 956.172 455.489 955.391 455.03Z" fill="#24126A"></path><path d="M970.462 463.759L960.699 458.108C959.918 457.648 960.01 456.867 960.929 456.339L970.6 450.757C971.495 450.229 972.874 450.183 973.655 450.619L983.417 456.27C984.198 456.73 984.106 457.511 983.188 458.039L973.517 463.621C972.621 464.149 971.243 464.195 970.462 463.759Z" fill="#24126A"></path><path d="M985.553 472.465L975.79 466.837C975.009 466.377 975.101 465.596 976.02 465.068L985.69 459.486C986.586 458.958 987.965 458.912 988.746 459.348L998.508 464.999C999.289 465.459 999.197 466.24 998.278 466.768L988.608 472.35C987.712 472.855 986.334 472.901 985.553 472.465Z" fill="#24126A"></path><path d="M1000.64 481.171L990.882 475.543C990.101 475.084 990.193 474.303 991.111 473.774L1000.78 468.192C1001.68 467.664 1003.06 467.618 1003.84 468.054L1013.6 473.705C1014.38 474.165 1014.29 474.946 1013.37 475.474L1003.7 481.056C1002.78 481.561 1001.43 481.63 1000.64 481.171Z" fill="#24126A"></path><path d="M1015.71 489.877L1005.95 484.226C1005.17 483.767 1005.26 482.986 1006.18 482.457L1015.85 476.875C1016.75 476.347 1018.13 476.301 1018.91 476.738L1028.67 482.365C1029.45 482.825 1029.36 483.606 1028.44 484.134L1018.77 489.716C1017.87 490.267 1016.5 490.336 1015.71 489.877Z" fill="#24126A"></path><path d="M1030.81 498.583L1021.04 492.955C1020.26 492.496 1020.35 491.715 1021.27 491.186L1030.94 485.604C1031.84 485.076 1033.22 485.03 1034 485.467L1043.76 491.117C1044.54 491.577 1044.45 492.358 1043.53 492.886L1033.86 498.468C1032.96 498.973 1031.59 499.042 1030.81 498.583Z" fill="#24126A"></path><path d="M1045.9 507.289L1036.13 501.638C1035.35 501.178 1035.45 500.397 1036.36 499.869L1046.04 494.287C1046.93 493.759 1048.31 493.713 1049.09 494.149L1058.85 499.8C1059.63 500.259 1059.54 501.04 1058.62 501.569L1048.95 507.151C1048.03 507.679 1046.68 507.748 1045.9 507.289Z" fill="#24126A"></path><path d="M1060.97 515.995L1051.2 510.344C1050.42 509.884 1050.51 509.103 1051.43 508.575L1061.1 502.993C1062 502.465 1063.38 502.419 1064.16 502.855L1073.92 508.506C1074.7 508.966 1074.61 509.747 1073.69 510.275L1064.02 515.857C1063.12 516.408 1061.75 516.454 1060.97 515.995Z" fill="#24126A"></path><path d="M854.068 447.404L825.309 430.796C824.528 430.336 824.619 429.555 825.538 429.027L835.209 423.445C836.105 422.917 837.483 422.871 838.264 423.307L867.024 439.915C867.805 440.375 867.713 441.156 866.794 441.684L857.123 447.266C856.204 447.794 854.849 447.863 854.068 447.404Z" fill="#24126A"></path><path d="M1039.37 554.402L1010.61 537.794C1009.83 537.335 1009.93 536.554 1010.84 536.025L1020.51 530.443C1021.41 529.915 1022.79 529.869 1023.57 530.305L1052.33 546.913C1053.11 547.373 1053.02 548.154 1052.1 548.682L1042.43 554.264C1041.53 554.792 1040.15 554.838 1039.37 554.402Z" fill="#24126A"></path><path d="M979.054 538.804L969.291 533.153C968.51 532.694 968.602 531.913 969.521 531.385L981.052 524.723C981.948 524.195 983.326 524.149 984.107 524.585L993.87 530.213C994.651 530.672 994.559 531.454 993.64 531.982L982.109 538.643C981.213 539.195 979.835 539.264 979.054 538.804Z" fill="#24126A"></path><path d="M869.505 475.566L853.885 466.538C853.104 466.079 853.196 465.298 854.114 464.769L865.646 458.108C866.542 457.579 867.92 457.534 868.701 457.97L884.321 466.998C885.102 467.457 885.01 468.238 884.091 468.766L872.56 475.428C871.664 475.956 870.286 476.025 869.505 475.566Z" fill="#24126A"></path><path d="M964.511 530.42L948.891 521.393C948.11 520.933 948.201 520.152 949.12 519.624L960.652 512.962C961.548 512.434 962.926 512.388 963.707 512.824L979.327 521.852C980.108 522.311 980.016 523.092 979.097 523.621L967.566 530.282C966.67 530.811 965.292 530.857 964.511 530.42Z" fill="#24126A"></path><path d="M891.28 488.131L875.66 479.104C874.879 478.644 874.971 477.863 875.89 477.335L887.421 470.673C888.317 470.145 889.695 470.099 890.476 470.535L906.096 479.563C906.877 480.022 906.786 480.803 905.867 481.332L894.335 487.993C893.417 488.522 892.061 488.59 891.28 488.131Z" fill="#24126A"></path><path d="M890.569 470.627L958.494 509.839C959.344 510.321 959.344 511.125 958.494 511.607L946.733 518.384C945.883 518.866 944.528 518.866 943.678 518.384L875.753 479.173L890.569 470.627Z" fill="#24126A"></path><path d="M1021.2 554.585L1032.09 560.856C1032.73 561.224 1032.64 561.867 1031.91 562.304L1027.2 565.037C1026.46 565.474 1025.34 565.52 1024.69 565.152L1013.81 558.881C1013.16 558.513 1013.25 557.87 1013.99 557.434L1018.7 554.7C1019.43 554.264 1020.56 554.218 1021.2 554.585Z" fill="#24126A"></path><path d="M1006 545.811L1016.89 552.082C1017.53 552.449 1017.44 553.092 1016.7 553.529L1011.99 556.262C1011.26 556.699 1010.13 556.745 1009.49 556.377L998.602 550.106C997.959 549.739 998.051 549.095 998.786 548.659L1003.49 545.925C1004.23 545.489 1005.36 545.443 1006 545.811Z" fill="#24126A"></path><path d="M990.906 537.104L1001.79 543.376C1002.44 543.743 1002.35 544.386 1001.61 544.823L996.901 547.556C996.166 547.993 995.041 548.039 994.397 547.671L983.509 541.4C982.866 541.032 982.958 540.389 983.693 539.953L988.402 537.219C989.16 536.783 990.263 536.737 990.906 537.104Z" fill="#24126A"></path><path d="M1014.34 541.01L1025.22 547.281C1025.87 547.648 1025.78 548.292 1025.04 548.728L1020.33 551.462C1019.6 551.898 1018.47 551.944 1017.83 551.576L1006.94 545.305C1006.3 544.938 1006.39 544.295 1007.12 543.858L1011.83 541.125C1012.57 540.688 1013.69 540.642 1014.34 541.01Z" fill="#24126A"></path><g class="image " id="image1"><path d="M957.368 180.621L950.706 176.785L951.234 173.707L957.873 177.543L957.368 180.621Z" fill="#42E8E0"></path><path d="M967.039 186.202L960.377 182.366L960.905 179.288L967.544 183.124L967.039 186.202Z" fill="#42E8E0"></path><path d="M947.789 175.108L933.202 166.677L933.73 163.599L948.317 172.029L947.789 175.108Z" fill="#42E8E0"></path><path d="M949.627 233.132L938.486 226.7L938.923 224.127L950.064 230.559L949.627 233.132Z" fill="#42E8E0"></path><path d="M959.137 238.622L953.555 235.406L953.991 232.833L959.573 236.049L959.137 238.622Z" fill="#42E8E0"></path><path d="M951.9 241.057L947.168 238.323L947.581 235.75L952.336 238.484L951.9 241.057Z" fill="#42E8E0"></path><path d="M959.849 245.651L954.29 242.435L954.704 239.862L960.285 243.078L959.849 245.651Z" fill="#42E8E0"></path><path d="M968.026 256.998L946.158 244.364L946.572 241.792L968.463 254.425L968.026 256.998Z" fill="#42E8E0"></path><path d="M949.054 307.511L927.186 294.877L927.622 292.304L949.49 304.938L949.054 307.511Z" fill="#42E8E0"></path><path d="M957.483 312.358L951.901 309.142L952.338 306.569L957.897 309.785L957.483 312.358Z" fill="#42E8E0"></path><path d="M949.878 253.139L945.146 250.383L945.56 247.81L950.315 250.567L949.878 253.139Z" fill="#42E8E0"></path><path d="M957.828 257.711L952.27 254.495L952.683 251.922L958.265 255.138L957.828 257.711Z" fill="#42E8E0"></path><path d="M956.15 263.361L944.113 256.424L944.55 253.851L956.586 260.788L956.15 263.361Z" fill="#42E8E0"></path><path d="M964.19 268.025L958.631 264.809L959.067 262.236L964.626 265.452L964.19 268.025Z" fill="#42E8E0"></path><path d="M972.3 272.688L966.718 269.472L967.154 266.899L972.713 270.115L972.3 272.688Z" fill="#42E8E0"></path><path d="M985.346 280.222L974.825 274.157L975.239 271.562L985.782 277.649L985.346 280.222Z" fill="#42E8E0"></path><path d="M977.008 288.652L971.449 285.436L971.886 282.863L977.445 286.079L977.008 288.652Z" fill="#42E8E0"></path><path d="M990.078 296.187L979.534 290.1L979.971 287.527L990.514 293.614L990.078 296.187Z" fill="#42E8E0"></path><path d="M947.674 271.699L942.092 268.483L942.528 265.911L948.087 269.127L947.674 271.699Z" fill="#42E8E0"></path><path d="M955.76 276.385L950.201 273.169L950.615 270.597L956.197 273.813L955.76 276.385Z" fill="#42E8E0"></path><path d="M968.807 283.92L958.286 277.832L958.723 275.26L969.243 281.347L968.807 283.92Z" fill="#42E8E0"></path><path d="M985.92 287.182L980.361 283.966L980.798 281.393L986.357 284.609L985.92 287.182Z" fill="#42E8E0"></path><path d="M994.03 291.845L988.448 288.629L988.885 286.056L994.444 289.272L994.03 291.845Z" fill="#42E8E0"></path><path d="M1007.08 299.402L996.556 293.315L996.969 290.742L1007.51 296.806L1007.08 299.402Z" fill="#42E8E0"></path><path d="M966.189 317.389L960.607 314.173L961.044 311.6L966.626 314.816L966.189 317.389Z" fill="#42E8E0"></path><path d="M979.235 324.923L968.715 318.836L969.128 316.263L979.672 322.35L979.235 324.923Z" fill="#42E8E0"></path><path d="M945.652 283.782L940.07 280.566L940.507 277.993L946.066 281.209L945.652 283.782Z" fill="#42E8E0"></path><path d="M958.7 291.317L948.18 285.229L948.593 282.657L959.137 288.744L958.7 291.317Z" fill="#42E8E0"></path><path d="M972.253 327.496L966.671 324.303L967.107 321.707L972.666 324.923L972.253 327.496Z" fill="#42E8E0"></path><path d="M985.301 335.053L974.78 328.966L975.194 326.393L985.737 332.48L985.301 335.053Z" fill="#42E8E0"></path><path d="M984.658 266.6L979.099 263.384L979.535 260.811L985.094 264.027L984.658 266.6Z" fill="#42E8E0"></path><path d="M976.249 261.731L970.69 258.515L971.104 255.942L976.686 259.158L976.249 261.731Z" fill="#42E8E0"></path><path d="M997.727 274.135L987.184 268.047L987.62 265.475L998.164 271.562L997.727 274.135Z" fill="#42E8E0"></path><path d="M948.134 265.36L943.104 262.465L943.54 259.893L948.571 262.787L948.134 265.36Z" fill="#42E8E0"></path><path d="M963.018 273.95L950.82 266.921L951.257 264.326L963.454 271.378L963.018 273.95Z" fill="#42E8E0"></path><path d="M977.927 282.565L965.706 275.513L966.143 272.94L978.363 279.992L977.927 282.565Z" fill="#42E8E0"></path><path d="M1005.47 278.591L1000.44 275.697L1000.87 273.124L1005.88 276.018L1005.47 278.591Z" fill="#42E8E0"></path><path d="M1020.35 287.205L1008.13 280.153L1008.57 277.58L1020.79 284.632L1020.35 287.205Z" fill="#42E8E0"></path><path d="M1035.24 295.796L1023.04 288.744L1023.48 286.171L1035.67 293.223L1035.24 295.796Z" fill="#42E8E0"></path><path d="M953.394 281.646L941.196 274.594L941.633 272.021L953.83 279.074L953.394 281.646Z" fill="#42E8E0"></path><path d="M959.847 285.344L956.08 283.185L956.517 280.612L960.261 282.772L959.847 285.344Z" fill="#42E8E0"></path><path d="M966.28 289.088L962.536 286.906L962.973 284.333L966.717 286.493L966.28 289.088Z" fill="#42E8E0"></path><path d="M978.202 295.957L968.99 290.627L969.427 288.055L978.638 293.384L978.202 295.957Z" fill="#42E8E0"></path><path d="M991.571 283.828L987.827 281.668L988.264 279.073L992.008 281.255L991.571 283.828Z" fill="#42E8E0"></path><path d="M1003.49 290.696L994.283 285.39L994.72 282.817L1003.93 288.124L1003.49 290.696Z" fill="#42E8E0"></path><path d="M1006 292.143L996.786 286.837L997.223 284.264L1006.43 289.57L1006 292.143Z" fill="#42E8E0"></path><path d="M956.908 325.267L944.871 318.33L945.308 315.757L957.321 322.695L956.908 325.267Z" fill="#42E8E0"></path><path d="M964.949 329.908L959.39 326.692L959.826 324.119L965.385 327.335L964.949 329.908Z" fill="#42E8E0"></path><path d="M973.033 334.594L967.474 331.378L967.91 328.805L973.469 332.021L973.033 334.594Z" fill="#42E8E0"></path><path d="M986.104 342.128L975.561 336.041L975.997 333.468L986.541 339.556L986.104 342.128Z" fill="#42E8E0"></path><path d="M994.466 346.952L988.884 343.736L989.32 341.163L994.879 344.379L994.466 346.952Z" fill="#42E8E0"></path><path d="M1007.51 354.486L996.971 348.399L997.407 345.826L1007.95 351.913L1007.51 354.486Z" fill="#42E8E0"></path><path d="M967.452 344.586L961.893 341.37L962.329 338.797L967.888 342.013L967.452 344.586Z" fill="#42E8E0"></path><path d="M980.523 352.143L969.979 346.056L970.416 343.483L980.937 349.571L980.523 352.143Z" fill="#42E8E0"></path><path d="M938.37 327.817L932.812 324.602L933.248 322.029L938.807 325.245L938.37 327.817Z" fill="#42E8E0"></path><path d="M946.48 332.48L940.898 329.264L941.335 326.691L946.894 329.907L946.48 332.48Z" fill="#42E8E0"></path><path d="M959.528 340.014L949.008 333.927L949.421 331.354L959.965 337.442L959.528 340.014Z" fill="#42E8E0"></path><path d="M948.892 327.266L943.861 324.349L944.298 321.776L949.328 324.693L948.892 327.266Z" fill="#42E8E0"></path><path d="M963.776 335.857L951.578 328.805L951.992 326.232L964.212 333.284L963.776 335.857Z" fill="#42E8E0"></path><path d="M978.662 344.448L966.465 337.396L966.901 334.823L979.099 341.875L978.662 344.448Z" fill="#42E8E0"></path><path d="M934.259 332.044L922.062 325.015L922.498 322.442L934.695 329.471L934.259 332.044Z" fill="#42E8E0"></path><path d="M940.715 335.765L936.948 333.606L937.385 331.033L941.129 333.192L940.715 335.765Z" fill="#42E8E0"></path><path d="M947.146 339.486L943.401 337.327L943.838 334.754L947.582 336.914L947.146 339.486Z" fill="#42E8E0"></path><path d="M959.067 346.378L949.855 341.048L950.292 338.476L959.503 343.805L959.067 346.378Z" fill="#42E8E0"></path><path d="M961.596 347.825L952.361 342.496L952.798 339.923L962.009 345.252L961.596 347.825Z" fill="#42E8E0"></path><path d="M939.773 308.752L936.028 306.592L936.442 304.02L940.209 306.179L939.773 308.752Z" fill="#42E8E0"></path><path d="M951.694 315.643L942.46 310.313L942.896 307.741L952.131 313.07L951.694 315.643Z" fill="#42E8E0"></path><path d="M963.869 322.672L954.658 317.342L955.072 314.77L964.306 320.099L963.869 322.672Z" fill="#42E8E0"></path><path d="M1010.82 363.008L1005.24 359.792L1005.68 357.22L1011.26 360.436L1010.82 363.008Z" fill="#42E8E0"></path><path d="M1023.87 370.543L1013.35 364.478L1013.76 361.906L1024.31 367.97L1023.87 370.543Z" fill="#42E8E0"></path><path d="M990.262 351.133L981.027 345.827L981.464 343.254L990.698 348.56L990.262 351.133Z" fill="#42E8E0"></path><path d="M1002.44 358.185L993.227 352.855L993.64 350.283L1002.87 355.612L1002.44 358.185Z" fill="#42E8E0"></path><path d="M933.249 283.231L929.505 281.071L929.941 278.499L933.686 280.658L933.249 283.231Z" fill="#42E8E0"></path><path d="M945.171 290.122L935.937 284.793L936.373 282.22L945.607 287.549L945.171 290.122Z" fill="#42E8E0"></path><path d="M957.344 297.151L948.133 291.822L948.569 289.25L957.781 294.579L957.344 297.151Z" fill="#42E8E0"></path><path d="M1141.39 390.964C1140.54 390.964 1139.66 390.711 1138.81 390.206L1064.25 347.159C1061.22 345.413 1059.24 340.956 1059.86 337.258L1064.64 308.82C1064.96 306.891 1065.97 305.398 1067.38 304.731C1068.68 304.111 1070.22 304.249 1071.69 305.099L1146.26 348.146C1149.29 349.892 1151.26 354.348 1150.64 358.047L1145.87 386.485C1145.55 388.414 1144.53 389.907 1143.13 390.573C1142.58 390.826 1141.98 390.964 1141.39 390.964ZM1069.1 305.398C1068.64 305.398 1068.23 305.489 1067.81 305.673C1066.71 306.202 1065.93 307.396 1065.65 308.981L1060.87 337.419C1060.32 340.727 1062.07 344.701 1064.76 346.24L1139.32 389.287C1140.49 389.953 1141.66 390.068 1142.65 389.609C1143.75 389.08 1144.53 387.886 1144.81 386.278L1149.59 357.84C1150.14 354.532 1148.39 350.558 1145.71 349.019L1071.14 305.972C1070.45 305.581 1069.76 305.398 1069.1 305.398Z" fill="#42E8E0"></path><path d="M1133.19 439.846C1132.34 439.846 1131.46 439.593 1130.61 439.111L1056.05 396.063C1053.02 394.318 1051.04 389.861 1051.66 386.163L1056.44 357.725C1056.76 355.796 1057.75 354.302 1059.17 353.636C1060.48 353.016 1062.02 353.154 1063.49 354.004L1138.06 397.051C1141.09 398.797 1143.06 403.253 1142.44 406.952L1137.67 435.389C1137.34 437.319 1136.33 438.812 1134.93 439.478C1134.38 439.708 1133.78 439.846 1133.19 439.846ZM1131.14 438.192C1132.31 438.858 1133.48 438.973 1134.47 438.514C1135.58 437.985 1136.36 436.791 1136.63 435.183L1141.41 406.745C1141.96 403.437 1140.22 399.463 1137.53 397.924L1062.96 354.877C1061.79 354.211 1060.6 354.096 1059.61 354.555C1058.51 355.083 1057.73 356.278 1057.47 357.863L1052.7 386.301C1052.15 389.609 1053.89 393.583 1056.58 395.122L1131.14 438.192Z" fill="#42E8E0"></path><path opacity="0.5" d="M1070.96 344.104C1072.27 344.862 1073.46 344.586 1073.9 343.391L1082.58 319.64C1083.57 316.929 1087.64 319.387 1088.49 323.2L1093.84 347.113C1094.23 348.858 1095.45 350.604 1096.82 351.385L1098.11 352.12C1099.35 352.832 1100.48 352.626 1100.96 351.592L1102.73 347.848C1103.83 345.528 1107.48 347.71 1108.47 351.293C1108.93 352.947 1110.08 354.532 1111.36 355.267L1112.49 355.911C1113.85 356.692 1115.04 356.37 1115.45 355.107L1117.06 350.145C1117.98 347.342 1122.05 349.685 1122.97 353.522L1128.32 375.642C1128.73 377.388 1129.95 379.088 1131.33 379.846L1070.96 344.104Z" fill="url(#paint7_linear_1792_18665)"></path><path d="M1121.89 428.59C1120.39 427.763 1119.08 425.926 1118.62 424.042L1113.27 401.921C1112.7 399.578 1110.79 397.763 1109.46 397.695C1108.93 397.672 1108.56 397.947 1108.36 398.567L1106.75 403.529C1106.52 404.241 1106.08 404.724 1105.46 404.976C1104.75 405.252 1103.9 405.137 1103.03 404.632L1101.9 403.989C1100.5 403.185 1099.26 401.485 1098.75 399.693C1098.11 397.419 1096.34 395.788 1095.08 395.673C1094.57 395.627 1094.21 395.834 1093.98 396.339L1092.21 400.083C1091.93 400.658 1091.5 401.048 1090.94 401.232C1090.26 401.439 1089.45 401.324 1088.62 400.842L1087.34 400.106C1085.82 399.234 1084.54 397.373 1084.12 395.489L1078.77 371.577C1078.24 369.211 1076.33 367.35 1074.98 367.258C1074.45 367.235 1074.08 367.488 1073.85 368.062L1065.15 391.814C1064.9 392.48 1064.46 392.94 1063.86 393.169C1063.17 393.422 1062.32 393.284 1061.47 392.802L1062 391.906C1062.58 392.227 1063.1 392.342 1063.52 392.182C1063.82 392.067 1064.05 391.837 1064.18 391.446L1072.89 367.695C1073.26 366.684 1074.06 366.11 1075.05 366.201C1076.82 366.316 1079.14 368.407 1079.8 371.324L1085.16 395.237C1085.52 396.845 1086.63 398.453 1087.89 399.188L1089.18 399.923C1089.73 400.244 1090.26 400.336 1090.65 400.221C1090.92 400.129 1091.15 399.923 1091.29 399.624L1093.06 395.88C1093.47 395.007 1094.25 394.525 1095.19 394.639C1097.08 394.8 1099.1 396.891 1099.79 399.417C1100.2 400.933 1101.28 402.404 1102.45 403.093L1103.58 403.736C1104.15 404.08 1104.7 404.172 1105.12 404.011C1105.42 403.897 1105.65 403.621 1105.78 403.23L1107.39 398.269C1107.71 397.258 1108.47 396.684 1109.44 396.684C1109.46 396.684 1109.5 396.684 1109.53 396.684C1111.27 396.753 1113.62 398.774 1114.31 401.691L1119.66 423.812C1120.05 425.397 1121.17 427.005 1122.41 427.694L1121.89 428.59Z" fill="#42E8E0"></path><path d="M1091.98 281.164C1090.9 281.164 1089.77 280.842 1088.71 280.245L1030.41 246.592C1026.81 244.525 1024.81 239.494 1025.93 235.429C1026.51 233.361 1027.75 231.845 1029.47 231.133C1031.15 230.444 1033.03 230.628 1034.8 231.661L1093.1 265.314C1096.71 267.404 1098.71 272.412 1097.58 276.478C1097.01 278.545 1095.77 280.061 1094.04 280.773C1093.4 281.026 1092.69 281.164 1091.98 281.164ZM1031.56 231.776C1030.99 231.776 1030.41 231.891 1029.89 232.098C1028.48 232.672 1027.43 233.959 1026.97 235.681C1025.96 239.334 1027.75 243.813 1030.97 245.674L1089.27 279.326C1090.76 280.176 1092.32 280.36 1093.68 279.785C1095.08 279.211 1096.13 277.925 1096.59 276.202C1097.6 272.55 1095.81 268.07 1092.6 266.21L1034.3 232.557C1033.4 232.029 1032.46 231.776 1031.56 231.776Z" fill="#42E8E0"></path></g><g class="image active" id="image2"><path d="M1029.82 367.638C1029 369.274 1028.18 370.82 1027.45 372.365C1027.18 372.183 1026.91 372.092 1026.63 371.91C1026.73 371.456 1026.91 371.092 1027 370.638C1027.63 368.456 1027.27 367.547 1025.36 366.274C1024.73 365.819 1024 365.456 1023.36 365.092C1022.73 364.729 1022.36 364.819 1022 365.547C1021.27 366.91 1020.45 368.183 1019.73 369.547V369.638C1021.27 370.729 1022.73 371.001 1024.09 368.91C1024.18 369.001 1024.36 369.001 1024.45 369.092C1024.54 369.183 1024.63 369.183 1024.82 369.274C1023.73 371.183 1022.63 373.092 1021.54 375.092C1021.45 375.001 1021.27 374.911 1021.18 374.911C1020.82 374.82 1020.82 374.638 1021 374.274C1021.73 372.547 1021.09 371.183 1019.27 370.547C1018.82 371.365 1018.36 372.092 1017.91 372.91C1017.45 373.729 1017 374.456 1016.54 375.274C1016.18 375.82 1016.27 376.183 1016.82 376.547C1018 377.365 1019.27 378.092 1020.63 378.456C1021.45 378.638 1022.18 378.547 1022.82 378.092C1023.45 377.547 1024.09 376.911 1024.73 376.365C1025.18 375.911 1025.18 375.82 1025.82 376.274C1025.73 376.456 1025.63 376.547 1025.54 376.729C1024.63 378.092 1023.82 379.456 1022.91 380.82C1022.73 381.002 1022.63 381.092 1022.45 380.911C1018.91 378.911 1015.36 376.911 1011.91 374.911C1011.82 374.911 1011.82 374.82 1011.73 374.82C1011.91 374.547 1012 374.274 1012.18 374.001C1012.45 374.183 1012.82 374.365 1013.09 374.547C1013.91 375.001 1014.18 374.911 1014.54 374.092C1016.36 370.91 1018.09 367.819 1019.91 364.638C1020.36 363.91 1020.27 363.547 1019.54 363.092C1019.27 362.91 1018.91 362.729 1018.63 362.547C1018.82 362.274 1019 362.001 1019.09 361.729C1022.73 363.638 1026.27 365.638 1029.82 367.638Z" fill="white"></path><path d="M1047.82 384.547C1047.45 384.547 1047.18 384.638 1046.91 384.638C1046.91 385.002 1046.91 385.365 1046.91 385.729C1046.54 387.274 1045.45 388.638 1043.45 388.456C1042.54 388.365 1041.73 388.093 1040.91 387.638C1040.36 387.365 1039.91 387.093 1039.36 386.911C1038.91 386.729 1038.54 386.911 1038.36 387.274C1038.18 387.729 1038.36 388.002 1038.64 388.184C1039.27 388.547 1039.91 388.911 1040.54 389.274C1041.27 389.729 1042.09 390.093 1042.82 390.638C1043.82 391.456 1044.18 392.184 1043.82 393.184C1043.36 394.456 1042.45 395.275 1041.27 395.365C1040.36 395.456 1039.45 395.184 1038.54 394.82C1037.36 394.275 1036.27 393.729 1035.36 392.82C1035 392.456 1034.63 392.002 1034.36 391.456C1033.91 390.456 1034.54 389.456 1035.64 389.274C1036.09 389.184 1036.64 389.274 1037.09 389.274C1036.36 388.547 1036.27 387.729 1036.91 386.82C1037.54 385.911 1038.45 385.82 1039.54 386.093C1039.54 386.002 1039.54 385.911 1039.45 385.911C1038.73 384.82 1038.91 383.638 1039.64 382.638C1040.36 381.547 1041.45 381.093 1042.73 381.183C1044.27 381.365 1045.64 382.274 1046.54 383.82C1047 383.82 1047.36 383.729 1047.82 383.729C1048.36 383.729 1048.91 383.82 1049.36 384.274C1049.82 384.729 1049.82 385.547 1049.36 386.002C1049 386.365 1048.36 386.365 1048 385.911C1047.82 385.729 1047.82 385.456 1047.73 385.183C1047.73 385.002 1047.82 384.82 1047.82 384.547ZM1041 383.911C1041 384.002 1041 384.002 1041 383.911C1040.91 384.093 1040.82 384.274 1040.73 384.547C1040.27 385.638 1040.54 386.456 1041.45 387.002C1042.54 387.729 1043.36 387.638 1044.18 386.729C1044.73 386.184 1045.09 385.456 1045.27 384.729C1045.54 383.82 1045.18 383.093 1044.18 382.547C1043.27 382.002 1042.45 382.093 1041.82 382.82C1041.54 383.274 1041.27 383.638 1041 383.911ZM1039.82 390.911C1039.36 390.729 1038.91 390.456 1038.45 390.184C1037.73 389.82 1036.64 390.002 1036.18 390.638C1035.73 391.274 1035.82 392.002 1036.64 392.638C1037.45 393.456 1038.54 393.911 1039.64 394.275C1040 394.365 1040.36 394.456 1040.73 394.456C1041.36 394.456 1041.82 394.002 1042 393.456C1042.18 392.911 1041.91 392.456 1041.54 392.093C1041 391.638 1040.45 391.274 1039.82 390.911Z" fill="white"></path><path d="M1050.82 326.637C1050.64 326.91 1050.45 327.183 1050.36 327.455C1048.27 326.273 1046.27 325.092 1044.18 323.91C1044.36 323.637 1044.45 323.364 1044.64 323.092C1045 323.273 1045.36 323.546 1045.82 323.728C1046.54 324.183 1046.82 324.092 1047.27 323.364C1049.09 320.182 1050.91 316.91 1052.73 313.728C1053.18 312.91 1053.09 312.728 1052.36 312.182C1051.09 311.455 1050.09 311.455 1049 312.455C1048.27 313.091 1047.73 313.819 1047.09 314.455C1047 314.546 1046.91 314.637 1046.91 314.728C1046.73 314.637 1046.45 314.455 1046.18 314.364C1047.18 312.728 1048.27 311.091 1049.27 309.455C1052.91 311.546 1056.54 313.546 1060.18 315.637C1059.36 317.364 1058.45 319.092 1057.64 320.819C1057.36 320.728 1057.18 320.546 1057 320.455C1057.27 319.546 1057.54 318.728 1057.73 317.819C1058.09 316.092 1057.64 315.092 1056 314.273C1055.54 314.001 1055.27 314.092 1055 314.455C1054.91 314.637 1054.73 314.819 1054.64 314.91C1052.82 318.001 1051.09 321.183 1049.27 324.273C1049.27 324.364 1049.18 324.364 1049.18 324.455C1048.82 325.183 1048.91 325.455 1049.54 325.819C1050 326.183 1050.36 326.455 1050.82 326.637Z" fill="white"></path><path d="M1040.09 349.365C1040.27 349.547 1040.54 349.728 1040.82 349.91C1039.27 352.183 1036.27 353.547 1033.27 352.001C1030.64 350.638 1029.27 348.183 1029.64 345.183C1030 342.001 1031.64 339.546 1034.45 337.91C1038 335.91 1042.09 337.819 1043.27 341.001C1043.54 340.819 1043.82 340.728 1044 340.546C1044.64 340.183 1044.64 340.183 1045.27 340.728C1044.36 342.456 1043.45 344.274 1042.54 346.092C1042.27 346.001 1042.09 345.91 1041.82 345.728C1042 345.183 1042.18 344.547 1042.27 344.001C1042.36 343.183 1042.45 342.274 1042.27 341.456C1041.82 338.637 1038.64 337.456 1036.36 339.001C1035.45 339.637 1034.73 340.456 1034.09 341.365C1033.09 342.819 1032.18 344.456 1031.82 346.183C1031.45 347.638 1031.64 349.092 1032.82 350.183C1034.45 351.728 1036.54 351.91 1038.36 350.638C1038.91 350.456 1039.45 349.91 1040.09 349.365Z" fill="white"></path><path d="M1075.54 341.91C1074.09 341.092 1072.64 340.274 1071.18 339.456C1071.18 339.365 1071.18 339.365 1071.18 339.365C1071.54 338.637 1071.54 338.637 1072.27 339.001C1072.91 339.365 1073.09 339.274 1073.45 338.637C1075.36 335.274 1077.27 331.91 1079.18 328.546C1079.54 327.91 1079.54 327.637 1078.82 327.183C1078.64 327.092 1078.36 326.91 1078.09 326.819C1078.18 326.637 1078.36 326.365 1078.45 326.092C1079.54 326.637 1080.64 327.183 1081.73 327.728C1080.54 329.819 1079.36 331.91 1078.09 334.092C1078.36 334.001 1078.45 334.001 1078.64 333.91C1080.18 333.365 1081.45 333.637 1082.64 334.728C1083.64 335.637 1083.82 337.001 1083.09 338.365C1082.36 339.637 1081.64 340.91 1080.91 342.274C1080.91 342.365 1080.82 342.456 1080.82 342.456C1080.27 343.456 1080.27 343.456 1081.18 344.092C1081.27 344.183 1081.36 344.274 1081.54 344.274C1081.36 344.547 1081.27 344.728 1081.09 345.001C1079.64 344.183 1078.18 343.365 1076.73 342.547V342.456C1077.09 341.728 1077.09 341.728 1077.73 342.092C1078.36 342.456 1078.54 342.365 1078.91 341.728C1079.64 340.365 1080.45 339.001 1081.18 337.728C1082.09 336.183 1081.27 334.728 1079.45 334.546C1078.27 334.456 1077.54 335.092 1077 335.91C1076.18 337.092 1075.54 338.365 1074.82 339.637C1074.54 340.092 1074.64 340.274 1075.09 340.637C1075.09 340.637 1075.18 340.637 1075.18 340.728C1076.09 341.183 1076.09 341.183 1075.54 341.91Z" fill="white"></path><path d="M1090.09 338.728C1089.82 339.274 1089.45 339.819 1089.18 340.365C1089.64 340.183 1090 340.092 1090.36 340.001C1091.91 339.728 1093.18 340.183 1094.18 341.365C1095.09 342.456 1094.82 343.728 1094.18 344.819C1093.36 346.274 1092.55 347.638 1091.73 349.092C1091.36 349.729 1091.45 349.819 1092 350.183C1092.73 350.638 1092.73 350.638 1092.09 351.274C1090.64 350.456 1089.18 349.638 1087.73 348.819C1087.73 348.729 1087.82 348.638 1087.82 348.547C1088.09 348.001 1088.09 348.001 1088.64 348.274C1088.73 348.365 1088.82 348.365 1089 348.456C1089.36 348.638 1089.64 348.547 1089.82 348.183C1090.36 347.183 1091 346.183 1091.55 345.183C1091.82 344.728 1092.09 344.274 1092.27 343.819C1093 342.456 1092.55 341.365 1091.09 340.819C1090.09 340.456 1089.27 340.728 1088.55 341.456C1088.27 341.728 1088 342.092 1087.82 342.365C1087.18 343.456 1086.45 344.638 1085.82 345.819C1085.55 346.274 1085.64 346.456 1086 346.728C1086.09 346.728 1086.09 346.819 1086.18 346.819C1086.91 347.274 1086.91 347.274 1086.36 347.91C1084.91 347.092 1083.45 346.274 1082 345.456V345.365C1082.36 344.638 1082.36 344.638 1083 345.001C1083.64 345.365 1083.82 345.365 1084.18 344.638C1085.18 342.819 1086.18 341.092 1087.27 339.274C1087.64 338.728 1087.55 338.456 1087 338.092C1086.73 337.91 1086.45 337.819 1086.18 337.637C1086.36 337.365 1086.45 337.183 1086.55 336.91C1087.91 337.728 1089 338.274 1090.09 338.728Z" fill="white"></path><path d="M1055 389.093C1055.09 389.002 1055.09 388.911 1055.09 388.911C1055.45 388.275 1055.36 388.365 1055.91 388.638C1056.73 389.002 1057.54 389.365 1058.27 389.82C1058.36 389.82 1058.45 389.911 1058.54 390.002C1058.27 390.547 1058 391.002 1057.64 391.547C1057.64 391.547 1057.64 391.638 1057.73 391.638C1057.91 391.547 1058 391.547 1058.18 391.456C1059.73 390.911 1061.09 391.184 1062.27 392.275C1063.27 393.184 1063.45 394.366 1062.91 395.638C1062.18 397.093 1061.36 398.547 1060.54 399.911C1060.45 400.184 1060.27 400.366 1060.18 400.638C1060 401.002 1060.09 401.184 1060.36 401.366C1060.64 401.547 1060.91 401.729 1061.18 401.911C1061 402.184 1060.91 402.366 1060.73 402.638C1059.27 401.82 1057.82 401.002 1056.36 400.184C1056.45 400.002 1056.64 399.729 1056.82 399.457C1057.09 399.547 1057.36 399.729 1057.64 399.82C1058.09 400.002 1058.27 400.002 1058.54 399.547C1059.45 398.002 1060.36 396.456 1061.18 394.911C1061.82 393.638 1061.09 392.456 1059.54 392.184C1058.64 392.002 1058 392.275 1057.36 392.911C1057 393.275 1056.73 393.638 1056.45 394.002C1055.82 395.093 1055.18 396.184 1054.64 397.184C1054.36 397.729 1054.36 397.82 1054.91 398.184C1055.09 398.366 1055.36 398.457 1055.54 398.638C1055.45 398.82 1055.36 398.911 1055.36 399.002C1055.27 399.093 1055.27 399.184 1055.18 399.366C1053.73 398.547 1052.27 397.729 1050.82 396.911C1050.91 396.729 1051.09 396.456 1051.27 396.184C1051.54 396.275 1051.82 396.456 1052.09 396.547C1052.54 396.729 1052.73 396.729 1053 396.275C1054.09 394.366 1055.18 392.547 1056.18 390.638C1056.45 390.184 1056.36 390.002 1056 389.638C1055.64 389.456 1055.27 389.275 1055 389.093Z" fill="white"></path><path d="M1028.91 374.274C1029 374.183 1029 374.092 1029 374.001C1029.27 373.456 1029.27 373.547 1029.82 373.729C1030.73 374.183 1031.54 374.547 1032.45 375.001C1032.45 375.001 1032.45 375.001 1032.54 375.092C1032.27 375.547 1032 376.092 1031.73 376.638C1031.73 376.638 1031.73 376.729 1031.82 376.729C1031.91 376.729 1032.09 376.638 1032.18 376.638C1033.63 376.001 1035 376.274 1036.27 377.274C1037.36 378.183 1037.63 379.547 1036.91 380.911C1036.09 382.456 1035.18 383.911 1034.36 385.456C1034 386.092 1034 386.274 1034.63 386.638C1034.82 386.729 1035 386.911 1035.18 387.002C1035.09 387.274 1034.91 387.456 1034.73 387.729C1033.27 386.911 1031.82 386.092 1030.36 385.274C1030.45 385.092 1030.63 384.82 1030.82 384.547C1031.09 384.638 1031.36 384.82 1031.63 384.911C1032 385.092 1032.27 385.002 1032.45 384.729C1033.36 383.183 1034.27 381.638 1035.09 380.001C1035.63 379.092 1035.27 378.183 1034.36 377.638C1033.09 376.82 1031.73 377.183 1030.82 378.547C1030 379.82 1029.27 381.183 1028.45 382.547C1028.27 382.82 1028.36 383.092 1028.63 383.274C1028.91 383.456 1029.18 383.638 1029.45 383.82C1029.27 384.092 1029.18 384.274 1029 384.547C1027.54 383.729 1026.09 382.911 1024.63 382.092C1024.73 381.82 1024.91 381.638 1025.09 381.365C1025.36 381.456 1025.63 381.638 1025.91 381.729C1026.36 382.002 1026.54 381.911 1026.82 381.456C1027.27 380.729 1027.73 379.911 1028.09 379.183C1028.73 378.092 1029.27 377.092 1029.91 376.001C1030.27 375.365 1030.18 375.092 1029.54 374.729C1029.45 374.547 1029.18 374.456 1028.91 374.274Z" fill="white"></path><path d="M1113.18 361.91C1111.64 362.365 1110.27 362.092 1109 361.365C1107.91 360.729 1107.36 359.638 1107.64 358.638C1107.91 357.456 1108.82 356.638 1110.09 356.547C1111.45 356.365 1112.73 356.819 1114.09 357.183C1114.55 357.274 1114.91 357.456 1115.36 357.638C1115.45 357.638 1115.64 357.638 1115.73 357.547C1116 357.001 1116.27 356.547 1116.45 356.001C1116.64 355.638 1116.45 355.183 1116.18 354.91C1115.55 354.183 1114.82 353.819 1113.91 353.638C1113.27 353.547 1113.18 353.728 1113.18 354.274V354.365C1113.18 354.91 1112.91 355.365 1112.45 355.547C1112.09 355.728 1111.45 355.547 1111.09 355.092C1110.73 354.728 1110.73 354.274 1111 353.728C1111.36 353.092 1111.91 352.728 1112.64 352.638C1114 352.456 1115.18 352.91 1116.27 353.638C1116.64 353.91 1117 354.183 1117.36 354.547C1118.18 355.365 1118.36 356.365 1117.82 357.456C1117.09 358.819 1116.36 360.092 1115.64 361.365C1115.55 361.638 1115.36 361.819 1115.27 362.092C1114.73 363.001 1115 363.456 1116 363.547C1116.18 363.547 1116.36 363.729 1116.36 363.819C1116.36 364.001 1116.27 364.183 1116.18 364.274C1115.82 364.365 1115.45 364.547 1115.09 364.547C1113.73 364.365 1113.09 363.456 1113.18 361.91ZM1115.18 358.456C1114 358.001 1113 357.638 1111.91 357.547C1111.55 357.547 1111.18 357.638 1110.91 357.728C1109.82 358.092 1109.36 359.638 1110 360.365C1110.91 361.365 1112.64 361.547 1113.64 360.638C1114.18 360.092 1114.64 359.274 1115.18 358.456Z" fill="white"></path><path d="M1041.82 351.001C1042.73 349.456 1043.82 348.456 1045.54 348.092C1048.91 347.547 1051.73 350.729 1050.73 354.092C1050.27 355.456 1049.54 356.638 1048.36 357.456C1046.73 358.638 1044.63 358.547 1043 357.365C1041.36 356.092 1040.73 354.183 1041.36 352.183C1041.45 352.001 1041.45 351.819 1041.54 351.729C1041.63 351.547 1041.73 351.274 1041.82 351.001ZM1048.27 354.547C1048.64 353.729 1049 352.819 1049.18 352.001C1049.45 350.91 1049.09 350.092 1048.09 349.547C1047.09 349.001 1046.18 349.092 1045.36 349.91C1044 351.183 1043.18 352.729 1042.73 354.547C1042.45 355.638 1042.91 356.547 1043.82 357.001C1044.82 357.547 1045.73 357.456 1046.54 356.638C1047.18 356.001 1047.73 355.274 1048.27 354.547Z" fill="white"></path><path d="M1080.82 408.638C1078.82 407.456 1076.82 406.366 1074.91 405.275C1073.91 406.366 1073.73 408.184 1074.45 409.275C1075.45 410.638 1077 410.82 1079.36 409.729C1079.54 409.911 1079.64 410.184 1079.82 410.457C1076.82 412.82 1073.18 410.82 1072.54 408.456C1072.09 407.093 1072.27 405.82 1072.91 404.547C1073.54 403.184 1074.45 402.093 1075.82 401.547C1077.64 400.82 1079.27 401.275 1080.64 402.547C1081.91 403.729 1082.18 405.275 1081.64 406.911C1081.36 407.456 1081.09 408.002 1080.82 408.638ZM1075.27 404.456C1076.45 405.184 1077.64 405.82 1078.73 406.456C1079.09 406.638 1079.36 406.547 1079.54 406.184C1079.73 405.729 1080 405.275 1080.09 404.729C1080.27 403.911 1080 403.184 1079.27 402.729C1078.45 402.184 1077.73 402.093 1076.91 402.638C1076.18 403.002 1075.73 403.729 1075.27 404.456Z" fill="white"></path><path d="M1071.91 403.547C1069.91 402.366 1067.91 401.275 1066 400.184C1065 401.275 1064.82 403.184 1065.64 404.184C1066.64 405.548 1068.27 405.638 1070.45 404.638C1070.64 404.82 1070.73 405.093 1070.91 405.366C1069.36 406.457 1067.82 406.729 1066.09 406.002C1063.18 404.638 1062.91 401.82 1063.91 399.638C1064.36 398.638 1065 397.638 1065.91 397.002C1067.64 395.729 1069.73 395.82 1071.45 397.184C1072.91 398.366 1073.36 400.366 1072.64 402.184C1072.36 402.638 1072.09 403.093 1071.91 403.547ZM1066.45 399.366C1067.64 400.002 1068.73 400.638 1069.91 401.275C1070.18 401.457 1070.55 401.457 1070.73 401.093C1071 400.457 1071.27 399.911 1071.36 399.275C1071.55 397.729 1069.73 396.547 1068.36 397.366C1067.45 397.82 1066.91 398.547 1066.45 399.366Z" fill="white"></path><path d="M1067 365.456C1066 364.82 1065 364.274 1064 363.729C1063 363.183 1062.09 362.638 1061.09 362.092C1059.73 363.547 1059.91 365.729 1061.36 366.729C1062.27 367.274 1063.27 367.456 1064.27 367.092C1064.73 366.91 1065.09 366.729 1065.54 366.547C1065.64 366.729 1065.82 367.001 1065.91 367.183C1064.54 368.456 1062.27 368.638 1060.54 367.547C1058.64 366.365 1057.91 364.274 1058.73 362.092C1059.27 360.547 1060.18 359.274 1061.64 358.456C1063.36 357.547 1065.27 357.91 1066.73 359.274C1068 360.456 1068.36 362.274 1067.73 364.001C1067.54 364.456 1067.27 364.91 1067 365.456ZM1061.64 361.274C1062 361.456 1062.27 361.638 1062.54 361.819C1063.36 362.274 1064.18 362.729 1065 363.183C1065.45 363.456 1065.73 363.365 1065.91 362.91C1066.09 362.456 1066.36 362.001 1066.45 361.547C1066.64 360.638 1066.36 359.91 1065.54 359.456C1064.73 358.91 1063.91 358.91 1063.18 359.456C1062.45 359.91 1062 360.547 1061.64 361.274Z" fill="white"></path><path d="M1064.27 330.092C1062.27 329.001 1060.36 327.91 1058.45 326.728C1057.36 328.001 1057.36 329.819 1058.09 330.728C1059.18 332.092 1060.82 332.274 1062.91 331.092C1063.09 331.364 1063.18 331.546 1063.36 331.819C1062.09 333.001 1060 333.183 1058.36 332.455C1055.45 331.001 1055.45 328.273 1056.18 326.364C1056.63 325.273 1057.27 324.183 1058.36 323.546C1059.82 322.546 1061.27 322.364 1062.91 323.183C1064.36 323.91 1065.36 325.092 1065.36 326.819C1065.36 328.001 1065 329.092 1064.27 330.092ZM1058.91 326.001C1060.09 326.637 1061.27 327.364 1062.45 328.001C1062.45 328.001 1062.54 328.092 1062.54 328.001C1062.73 327.91 1063 327.91 1063.09 327.819C1063.36 327.273 1063.64 326.819 1063.73 326.273C1063.91 325.364 1063.54 324.546 1062.73 324.092C1062 323.637 1061.09 323.637 1060.36 324.183C1059.73 324.637 1059.27 325.273 1058.91 326.001Z" fill="white"></path><path d="M1097.27 412.82C1097.73 412.729 1098.18 412.275 1098.64 412.911C1098.09 413.911 1097.54 414.82 1097 415.82C1096.54 415.729 1096.45 415.548 1096.45 415.002C1096.64 413.911 1096.45 412.82 1095.64 412.002C1095.18 411.548 1094.54 411.275 1093.91 411.275C1092.82 411.275 1092.27 412.184 1092.82 413.093C1093.09 413.639 1093.54 414.002 1094 414.457C1094.54 415.002 1095.09 415.457 1095.64 416.093C1096.54 417.093 1096.64 418.002 1096 419.093C1095.27 420.457 1094.18 421.093 1092.91 420.911C1091.36 420.73 1090.27 419.911 1089.54 418.548C1089.45 418.457 1089.45 418.275 1089.36 418.184C1089.36 418.184 1089.36 418.184 1089.27 418.093C1088.73 418.184 1088.27 418.82 1087.73 418.184C1088.36 417.002 1089.09 415.82 1089.73 414.639C1089.91 414.729 1090.09 414.911 1090.36 415.002C1090.27 415.548 1090.18 416.002 1090.18 416.548C1090.09 418.093 1090.91 419.275 1092.36 419.82C1093.27 420.184 1094.09 419.911 1094.54 419.184C1094.82 418.639 1094.82 418.184 1094.45 417.73C1094 417.275 1093.54 416.82 1093.09 416.366C1092.64 415.82 1092.09 415.366 1091.64 414.82C1090.82 413.82 1090.91 412.548 1091.82 411.366C1092.64 410.366 1093.91 410.093 1095 410.638C1096.09 411.093 1096.64 411.639 1097.27 412.82Z" fill="white"></path><path d="M1106.91 356.274C1107.09 356.547 1107.18 356.728 1107.36 356.91C1106.27 358.183 1104.18 358.547 1102.73 357.819C1100.27 356.547 1099.55 353.91 1100.91 351.365C1101.73 349.91 1102.82 348.728 1104.45 348.274C1106.27 347.819 1108.55 348.728 1109.45 350.274C1110.09 351.274 1110 352.274 1109.27 353.001C1108.82 353.456 1108.18 353.547 1107.64 353.183C1107.09 352.91 1106.82 352.365 1107 351.819C1107.09 351.365 1107.45 351.092 1107.91 351.001C1108.45 350.819 1108.55 350.637 1108.18 350.183C1107.55 349.365 1106.27 348.728 1105.09 349.547C1104.55 349.91 1104.09 350.365 1103.73 350.91C1103.09 351.728 1102.55 352.728 1102.27 353.819C1102 355.092 1102.27 356.001 1103.36 356.728C1104.36 357.365 1105.36 357.365 1106.36 356.728C1106.55 356.547 1106.73 356.365 1106.91 356.274Z" fill="white"></path><path d="M1071.27 335.91C1071.45 336.183 1071.54 336.365 1071.73 336.547C1070.73 337.819 1068.63 338.183 1067.18 337.456C1064.73 336.183 1063.91 333.637 1065.09 331.183C1065.73 329.819 1066.63 328.728 1068.09 328.092C1070 327.274 1072.45 328.001 1073.73 329.728C1074.36 330.637 1074.45 331.637 1073.82 332.456C1073.27 333.274 1072.09 333.274 1071.54 332.456C1071.09 331.819 1071.36 331.001 1072.09 330.728C1072.82 330.456 1072.91 330.092 1072.27 329.546C1071.18 328.637 1070 328.637 1068.91 329.546C1067.73 330.637 1067 331.91 1066.63 333.456C1066.36 334.637 1066.63 335.637 1067.73 336.274C1068.73 336.91 1069.63 336.91 1070.63 336.365C1070.82 336.274 1071.09 336.092 1071.27 335.91Z" fill="white"></path><path d="M1116.27 365.092C1116.45 364.82 1116.55 364.638 1116.73 364.274C1117 364.456 1117.27 364.638 1117.55 364.729C1118 365.002 1118.27 364.911 1118.55 364.456C1120.55 361.001 1122.45 357.547 1124.45 354.092C1124.73 353.638 1124.64 353.365 1124.27 353.092C1124.18 353.001 1124 352.91 1123.82 352.82C1123.64 352.729 1123.55 352.638 1123.36 352.547C1123.45 352.365 1123.55 352.183 1123.64 352.001C1123.73 351.91 1123.91 351.91 1123.91 351.91C1124.91 352.365 1125.91 352.91 1127 353.456C1126.91 353.638 1126.82 353.82 1126.73 353.91C1124.64 357.638 1122.45 361.365 1120.36 365.092C1120.27 365.183 1120.18 365.365 1120.18 365.547C1120 365.911 1120.09 366.183 1120.36 366.365C1120.64 366.547 1120.91 366.638 1121.18 366.82C1121 367.092 1120.91 367.365 1120.73 367.638C1119.36 366.82 1117.82 366.002 1116.27 365.092Z" fill="white"></path><path d="M1089.36 408.547C1088.73 408.184 1088.09 408.365 1087.54 408.638C1086.36 409.184 1085.45 410.093 1084.82 411.275C1084.36 412.093 1083.91 412.911 1083.45 413.729C1083.18 414.184 1083.27 414.366 1083.73 414.638C1084.09 414.911 1084.45 415.093 1084.82 415.366C1084.64 415.638 1084.54 415.82 1084.36 416.093C1082.82 415.184 1081.18 414.275 1079.54 413.366C1079.64 413.184 1079.73 413.002 1079.82 412.911C1079.91 412.729 1080.09 412.729 1080.27 412.82C1080.45 412.911 1080.64 413.002 1080.91 413.093C1081.45 413.366 1081.54 413.275 1081.91 412.82C1082.82 411.275 1083.73 409.638 1084.64 408.093C1084.73 408.002 1084.73 407.911 1084.82 407.82C1085.54 406.638 1085.54 406.547 1084.27 405.82C1084.18 405.729 1084.09 405.729 1083.91 405.638C1084 405.547 1084 405.365 1084.09 405.275C1084.18 405.184 1084.18 405.093 1084.27 404.911C1085.36 405.456 1086.45 405.911 1087.54 406.456C1087.09 407.275 1086.64 408.002 1086.27 408.729C1086.27 408.729 1086.27 408.729 1086.36 408.82C1086.45 408.729 1086.64 408.638 1086.73 408.547C1087.36 408.093 1088.09 407.638 1088.91 407.547C1089.91 407.456 1090.91 408.002 1091.27 408.82C1091.55 409.547 1091.36 410.093 1090.91 410.638C1090.64 411.002 1090.18 411.093 1089.73 411.002C1089.27 410.82 1088.82 410.547 1088.82 410.002C1088.73 409.547 1089 409.093 1089.36 408.82C1089.09 408.638 1089.18 408.638 1089.36 408.547Z" fill="white"></path><path d="M1054 362.365C1053.82 362.638 1053.73 362.91 1053.54 363.183C1052 362.274 1050.36 361.365 1048.82 360.456C1049 360.183 1049.09 360.001 1049.27 359.729C1049.54 359.91 1049.82 360.001 1050.18 360.183C1050.64 360.365 1050.82 360.365 1051.09 359.91C1052.18 358.001 1053.27 356.183 1054.27 354.274C1054.54 353.819 1054.45 353.638 1054 353.274C1053.73 353.092 1053.36 352.91 1053 352.729C1053.18 352.456 1053.27 352.274 1053.45 352.001C1054.54 352.547 1055.54 353.001 1056.73 353.547C1056.27 354.365 1055.82 355.092 1055.45 355.819C1055.45 355.819 1055.45 355.819 1055.54 355.91C1055.73 355.729 1055.91 355.638 1056.18 355.456C1057.18 354.819 1058.18 354.456 1059.27 354.91C1060.45 355.365 1060.91 356.819 1060.09 357.729C1059.73 358.183 1059.27 358.365 1058.82 358.183C1058.36 358.001 1058 357.729 1057.91 357.183C1057.82 356.729 1058.09 356.183 1058.54 355.91C1058.64 355.91 1058.64 355.819 1058.73 355.819C1058.27 355.547 1057.91 355.547 1057.45 355.638C1056.36 355.91 1055.54 356.547 1054.91 357.456C1054.09 358.547 1053.45 359.729 1052.73 360.91C1052.45 361.274 1052.54 361.547 1053 361.82C1053.27 361.91 1053.64 362.092 1054 362.365Z" fill="white"></path><path d="M1098 343.546C1099.09 344.092 1100.18 344.637 1101.27 345.183C1101.18 345.365 1101.09 345.455 1101 345.637C1099.73 347.819 1098.45 350.001 1097.27 352.274C1096.91 352.91 1096.91 353.092 1097.64 353.456C1097.82 353.547 1098 353.728 1098.27 353.819C1098.09 354.092 1098 354.274 1097.82 354.547C1096.27 353.728 1094.82 352.819 1093.27 352.001C1093.27 351.91 1093.27 351.91 1093.36 351.819C1093.64 351.183 1093.64 351.183 1094.27 351.546C1095.18 352.001 1095.27 352.001 1095.73 351.092C1096.64 349.456 1097.64 347.728 1098.54 346.092C1099 345.274 1098.91 345.092 1098.09 344.637C1097.91 344.546 1097.73 344.455 1097.54 344.274C1097.73 344.001 1097.82 343.728 1098 343.546Z" fill="white"></path><path d="M1045.18 393.638C1045.54 392.911 1045.54 392.911 1046.27 393.183C1046.36 393.274 1046.45 393.274 1046.54 393.365C1047 393.547 1047.18 393.547 1047.45 393.093C1048.54 391.183 1049.64 389.274 1050.73 387.456C1050.91 387.092 1050.91 386.82 1050.54 386.547C1050.27 386.365 1049.91 386.183 1049.64 385.911C1049.73 385.729 1049.91 385.456 1050 385.183C1051.09 385.729 1052.18 386.183 1053.27 386.82C1053.18 387.002 1053.09 387.092 1053 387.274C1051.73 389.456 1050.45 391.729 1049.27 393.911C1048.91 394.547 1048.91 394.638 1049.54 395.093C1049.73 395.274 1050 395.365 1050.18 395.547C1050 395.82 1049.91 396.002 1049.73 396.274C1048.18 395.365 1046.73 394.547 1045.18 393.638Z" fill="white"></path><path d="M1102.91 340.092C1103.55 340.455 1103.73 341.183 1103.36 341.819C1103 342.456 1102.27 342.637 1101.64 342.274C1101 341.91 1100.82 341.183 1101.18 340.546C1101.64 340.001 1102.36 339.819 1102.91 340.092Z" fill="white"></path><path d="M1053.18 382.365C1053.54 381.729 1054.27 381.547 1054.91 381.911C1055.54 382.274 1055.73 383.002 1055.36 383.638C1055 384.274 1054.27 384.456 1053.64 384.093C1053.09 383.638 1052.91 382.911 1053.18 382.365Z" fill="white"></path><path d="M1017.73 332.365C1006.91 326.183 996.089 320.001 985.271 313.91C985.18 313.91 985.18 313.819 985.089 313.819C984.907 313.637 984.816 313.728 984.634 313.91C984.18 314.819 983.634 315.637 983.18 316.546V316.637C982.634 317.455 982.18 318.364 981.725 319.273C981.18 320.183 980.725 321.092 980.18 322.001C979.998 322.273 980.089 322.455 980.361 322.637C991.271 328.819 1002.09 335.001 1013 341.183C1013.36 341.365 1013.45 341.274 1013.63 341.001C1015.09 338.365 1016.54 335.819 1018.09 333.274C1018.18 332.728 1018.09 332.546 1017.73 332.365Z" fill="white"></path><path d="M975.634 347.365C975.725 347.183 975.816 347.001 975.543 346.819C974.543 346.274 973.634 345.728 972.634 345.183C972.361 345.001 972.089 344.819 971.816 344.638C971.634 344.547 971.543 344.365 971.361 344.274C970.907 343.819 970.543 343.274 969.998 342.819C969.634 342.183 969.361 341.547 968.998 340.91C968.816 340.365 968.725 339.819 968.543 339.274C968.543 338.728 968.452 338.183 968.452 337.637C968.543 337.001 968.634 336.365 968.725 335.728C968.907 335.274 968.998 334.819 969.27 334.456C970.907 331.637 972.543 328.728 974.089 325.91C981.089 313.637 988.089 301.364 994.998 289.182C996.816 285.909 998.725 282.728 1000.54 279.455C1000.63 279.273 1000.73 279.182 1000.73 279V278.909C994.18 275.182 987.543 271.455 980.998 267.636C979.271 266.636 977.452 265.636 975.725 264.636C972.998 263.091 970.361 261.545 967.634 260C967.634 260 967.634 260 967.634 260.091C965.543 263.727 963.543 267.364 961.452 270.909C961.361 271 961.27 271.091 961.452 271.182C961.634 271.273 961.816 271.364 961.998 271.455C968.816 275.273 975.543 279.182 982.362 283C982.634 283.182 982.725 283.273 982.543 283.637C981.907 284.728 981.271 285.909 980.543 287.091C971.998 302.092 963.452 317.092 954.907 332.001C954.816 332.183 954.725 332.274 954.634 332.456C953.998 333.546 953.634 334.728 953.361 336.001C952.725 339.092 952.907 342.092 954.088 345.001C955.361 348.365 957.543 351.001 960.543 352.91C960.634 353.092 960.907 353.183 961.089 353.365C963.725 354.82 966.27 356.365 968.907 357.82C969.27 358.001 969.361 357.91 969.543 357.638C970.816 355.456 971.998 353.274 973.271 351.001C974.18 349.91 974.907 348.638 975.634 347.365ZM993.998 290.91C993.907 290.91 993.907 290.91 993.998 290.91Z" fill="white"></path><path d="M1005 354.092C1004.36 353.728 1003.82 353.456 1003.27 353.092L1003.18 353.001C1000.09 351.274 996.997 349.456 993.906 347.728C993.634 347.547 993.543 347.728 993.452 347.91C992.906 348.819 992.179 349.547 991.361 350.183C990.725 350.547 990.088 350.91 989.452 351.183C988.906 351.365 988.361 351.456 987.816 351.638C987.361 351.638 986.906 351.728 986.452 351.728C986.088 351.728 985.634 351.638 985.27 351.638C984.815 351.547 984.27 351.456 983.815 351.274C983.179 351.001 982.543 350.728 981.906 350.365C980.815 349.728 979.724 349.092 978.634 348.547C978.543 348.456 978.361 348.274 978.27 348.547C977.906 349.274 977.361 349.91 977.088 350.728H976.997L976.906 350.819C975.27 353.638 973.724 356.456 972.088 359.274C971.906 359.547 972.088 359.638 972.27 359.819C975.179 361.456 978.088 363.183 981.088 364.82C982.361 365.547 983.725 366.001 985.179 366.365C986.452 366.729 987.816 366.91 989.088 366.82C989.997 366.91 990.906 366.82 991.816 366.638C992.543 366.547 993.27 366.365 993.997 366.092C994.634 365.91 995.179 365.638 995.816 365.365C996.725 365.001 997.543 364.547 998.27 363.91C998.816 363.547 999.361 363.183 999.725 362.729C1000.45 362.092 1001.09 361.456 1001.54 360.729C1001.82 360.547 1001.91 360.183 1002.09 359.91C1002.18 359.91 1002.18 359.819 1002.27 359.729C1003.27 358.001 1004.27 356.274 1005.27 354.456C1005.27 354.274 1005.18 354.183 1005 354.092Z" fill="white"></path><path d="M995.907 293.455C995.816 293.546 995.816 293.637 995.907 293.637C995.907 293.637 995.907 293.728 995.998 293.728C996.725 293.546 997.453 293.546 998.18 293.455C998.998 293.455 999.816 293.637 1000.54 293.818C1001.09 294 1001.63 294.273 1002.18 294.455C1002.36 294.546 1002.63 294.728 1002.82 294.818C1003.18 295 1003.54 295.182 1003.91 295.455C1004.27 295.637 1004.73 295.909 1005.09 296.182C1005.54 296.455 1006 296.728 1006.45 296.909C1007 297.182 1007.54 297.546 1008.09 297.818C1008.63 298.091 1009.18 298.455 1009.73 298.728C1010.18 299 1010.54 299.182 1011 299.455C1011.45 299.728 1011.91 300 1012.36 300.273C1012.82 300.637 1013.18 301 1013.63 301.364C1014.09 301.909 1014.54 302.455 1014.91 303C1015.45 304 1015.82 305.091 1016 306.182C1016 306.546 1016.09 307 1016 307.364C1016 308.819 1015.54 310.182 1014.82 311.455C1014.63 311.728 1014.63 311.819 1015 312.001C1018.73 314.091 1022.36 316.182 1026.09 318.273C1026.36 318.455 1026.45 318.364 1026.63 318.092C1027.27 316.91 1028 315.728 1028.63 314.455C1029.36 313.182 1030.09 311.91 1030.54 310.546C1031.09 309 1031.45 307.364 1031.36 305.637C1031.36 305.455 1031.36 305.364 1031.36 305.182C1031.45 303.364 1031 301.637 1030.36 300C1030.18 299.273 1029.82 298.637 1029.45 298C1029.18 297.455 1028.91 296.909 1028.45 296.546C1027.82 295.455 1027 294.546 1026.09 293.728C1026 293.546 1025.82 293.546 1025.73 293.364C1025.18 292.818 1024.54 292.273 1023.82 291.909C1023.73 291.818 1023.63 291.818 1023.54 291.728C1023.54 291.728 1023.54 291.728 1023.54 291.637C1020.09 289.637 1016.63 287.637 1013.09 285.727C1009.91 283.909 1006.63 282.091 1003.45 280.182V280.273C1003 281 1002.54 281.818 1002.09 282.546C1000.54 285.364 998.907 288.091 997.271 290.909C996.816 291.909 996.362 292.637 995.907 293.455ZM1002.09 282.818C1002 282.818 1002 282.818 1002.09 282.818Z" fill="white"></path></g></g><defs><radialGradient id="paint0_radial_1792_18665" cx="0" cy="0" r="1" gradientUnits="userSpaceOnUse" gradientTransform="translate(1471.2 130.574) rotate(180) scale(1054.42 1054.42)"><stop stop-color="#FF2C9C"></stop><stop offset="0.0301" stop-color="#F62F9F"></stop><stop offset="0.2023" stop-color="#C63EB0"></stop><stop offset="0.3737" stop-color="#9E4BBE"></stop><stop offset="0.5413" stop-color="#7F54C9"></stop><stop offset="0.7039" stop-color="#695BD1"></stop><stop offset="0.8594" stop-color="#5C60D5"></stop><stop offset="1" stop-color="#5761D7"></stop></radialGradient><linearGradient id="paint1_linear_1792_18665" x1="1229.51" y1="319.797" x2="870.422" y2="319.797" gradientUnits="userSpaceOnUse"><stop stop-color="#C0BFF6"></stop><stop offset="0.2938" stop-color="#C5C4F7"></stop><stop offset="0.6399" stop-color="#D3D2F9"></stop><stop offset="1" stop-color="#E9E9FD"></stop></linearGradient><linearGradient id="paint2_linear_1792_18665" x1="1229.51" y1="411.888" x2="1167.85" y2="411.888" gradientUnits="userSpaceOnUse"><stop stop-color="#5761D7"></stop><stop offset="0.1779" stop-color="#5C66D9"></stop><stop offset="0.3876" stop-color="#6A73DF"></stop><stop offset="0.6134" stop-color="#8289E8"></stop><stop offset="0.849" stop-color="#A3A7F5"></stop><stop offset="1" stop-color="#BCBEFF"></stop></linearGradient><linearGradient id="paint3_linear_1792_18665" x1="1181.4" y1="512.365" x2="674.249" y2="512.365" gradientUnits="userSpaceOnUse"><stop stop-color="#5761D7"></stop><stop offset="0.1779" stop-color="#5C66D9"></stop><stop offset="0.3876" stop-color="#6A73DF"></stop><stop offset="0.6134" stop-color="#8289E8"></stop><stop offset="0.849" stop-color="#A3A7F5"></stop><stop offset="1" stop-color="#BCBEFF"></stop></linearGradient><linearGradient id="paint4_linear_1792_18665" x1="1406.71" y1="498.497" x2="659.404" y2="498.497" gradientUnits="userSpaceOnUse"><stop stop-color="#C0BFF6"></stop><stop offset="0.2938" stop-color="#C5C4F7"></stop><stop offset="0.6399" stop-color="#D3D2F9"></stop><stop offset="1" stop-color="#E9E9FD"></stop></linearGradient><linearGradient id="paint5_linear_1792_18665" x1="1376.42" y1="400.751" x2="869.267" y2="400.751" gradientUnits="userSpaceOnUse"><stop stop-color="#5761D7"></stop><stop offset="0.1779" stop-color="#5C66D9"></stop><stop offset="0.3876" stop-color="#6A73DF"></stop><stop offset="0.6134" stop-color="#8289E8"></stop><stop offset="0.849" stop-color="#A3A7F5"></stop><stop offset="1" stop-color="#BCBEFF"></stop></linearGradient><linearGradient id="paint6_linear_1792_18665" x1="1206.01" y1="386.883" x2="698.591" y2="386.883" gradientUnits="userSpaceOnUse"><stop stop-color="#C0BFF6"></stop><stop offset="0.2938" stop-color="#C5C4F7"></stop><stop offset="0.6399" stop-color="#D3D2F9"></stop><stop offset="1" stop-color="#E9E9FD"></stop></linearGradient><linearGradient id="paint7_linear_1792_18665" x1="1076.68" y1="335.819" x2="1183.79" y2="381.646" gradientUnits="userSpaceOnUse"><stop stop-color="#42E8E0"></stop><stop offset="0.1055" stop-color="#37B6BF"></stop><stop offset="0.2197" stop-color="#2C87A1"></stop><stop offset="0.338" stop-color="#235F87"></stop><stop offset="0.4587" stop-color="#1C3F72"></stop><stop offset="0.5824" stop-color="#162561"></stop><stop offset="0.7105" stop-color="#121355"></stop><stop offset="0.8458" stop-color="#10084E"></stop><stop offset="1" stop-color="#0F054C"></stop></linearGradient></defs></svg>