<svg width="102" height="46" viewBox="0 0 102 46" fill="none" xmlns="http://www.w3.org/2000/svg">
<g clip-path="url(#clip0_2962_6376)">
<path d="M54.7699 34.3833L54.9234 37.4H54.4118C54.4118 37.1548 54.3094 36.9096 54.2477 36.6644C53.9213 35.4065 53.512 35.059 52.203 34.9461C51.7638 34.9161 51.3227 34.9161 50.8835 34.9461C50.4548 34.9461 50.3419 35.0995 50.3419 35.5282V38.1357C51.3651 38.238 52.2136 37.961 52.3054 36.5409H52.5294C52.607 36.5356 52.6864 36.5356 52.764 36.5409V40.3338H52.5188C52.3248 40.3338 52.263 40.2721 52.2436 40.078C52.2277 39.2771 51.5662 38.6384 50.7653 38.6543C50.6188 38.6579 50.4724 38.6826 50.333 38.7284V41.7963C50.333 42.1738 50.4354 42.3079 50.8129 42.3379C51.6262 42.4261 52.4483 42.382 53.2457 42.2056C53.6814 42.1262 54.0413 41.8228 54.1965 41.4082C54.3765 40.9513 54.5282 40.4838 54.6464 40.0074C54.7593 39.6193 54.7381 39.6193 55.1774 39.6599V39.9669L55.0539 42.7578C55.0539 42.8901 55.0539 42.9412 54.8599 42.9412H47.8262V42.3996H48.4401C48.9411 42.3996 49.0646 42.2673 49.0646 41.7663V35.5706C49.0646 35.0696 48.9323 34.9372 48.4313 34.9372H47.8279V34.3851H54.7699V34.3833Z" fill="white"/>
<path d="M68.4194 37.6647L68.0207 37.9716C68.1248 38.1428 68.2165 38.3192 68.2959 38.5027C68.6505 39.4112 68.2218 40.4379 67.3238 40.8243C66.8599 41.0289 66.3589 41.1313 65.8508 41.1207C65.5262 41.1277 65.2016 41.1542 64.8787 41.2018C64.6406 41.223 64.4624 41.4329 64.48 41.6728C64.4906 41.8934 64.6776 42.0627 64.8981 42.0504C64.8981 42.0504 64.8981 42.0504 64.8999 42.0504C65.3092 42.0504 65.7273 42.0504 66.1472 42.0504C66.6482 42.0204 67.1492 42.0204 67.6502 42.0504C68.3859 42.1421 68.7546 42.4597 68.8675 43.0118C69.058 43.6875 68.8004 44.4108 68.2236 44.8113C67.7737 45.0953 67.2621 45.2629 66.7311 45.3017C66.0254 45.404 65.3074 45.3723 64.6141 45.21C64.3054 45.1376 64.0125 45.0053 63.755 44.8219C63.3563 44.5343 63.2681 43.9786 63.5556 43.5799C63.6103 43.504 63.6791 43.4352 63.755 43.3805C63.9825 43.2253 64.2207 43.0877 64.4712 42.9713C63.9914 42.8531 63.665 42.4103 63.695 41.9181C63.7567 41.2741 64.196 40.9884 64.7888 40.8243L64.7076 40.752C64.1025 40.4256 63.7638 39.757 63.859 39.076C63.8855 38.3668 64.3389 37.7458 65.004 37.5024C65.8684 37.1478 66.8511 37.2236 67.652 37.707L68.2253 37.2977C68.4882 37.116 68.8128 37.049 69.1251 37.1143C69.492 37.2254 69.7002 37.6135 69.589 37.9805C69.5873 37.984 69.5873 37.9893 69.5855 37.9928C69.492 38.2716 69.1903 38.4215 68.9116 38.328C68.9045 38.3262 68.8975 38.3227 68.8887 38.3192C68.7634 38.2433 68.6558 38.1428 68.5711 38.0228C68.5058 37.9117 68.4529 37.7917 68.4194 37.6647ZM64.9017 39.2912C64.9017 39.4147 64.9017 39.5365 64.9017 39.6494C64.9017 40.2139 65.3586 40.6726 65.9249 40.6726C66.4876 40.8596 67.0945 40.5544 67.2815 39.9916C67.3009 39.9299 67.3168 39.8681 67.3256 39.8046C67.4332 39.3847 67.4332 38.9455 67.3256 38.5274C67.2039 38.0105 66.7064 37.6717 66.1807 37.7511C65.6603 37.6982 65.1839 38.0475 65.0763 38.5591C65.0022 38.7955 64.944 39.0425 64.9017 39.2912ZM66.3024 43.0436C66.006 43.0436 65.7202 43.0436 65.4327 43.0436C64.9264 43.0365 64.4906 43.4017 64.4095 43.9027C64.4095 44.3632 64.6035 44.6596 65.1857 44.7813C65.819 44.9242 66.4753 44.9242 67.1086 44.7813C67.3168 44.7337 67.5161 44.6543 67.7014 44.5467C68.0031 44.3667 68.1459 44.0051 68.0489 43.6681C67.9907 43.3664 67.7314 43.1459 67.4244 43.1371C67.0486 43.0842 66.6605 43.0736 66.3024 43.0436Z" fill="white"/>
<path d="M53.6145 8.22975V8.78193H49.5252V8.22975H50.282C50.7724 8.22975 50.8853 8.10626 50.8853 7.61583V1.31955C50.8853 0.788541 50.7936 0.695041 50.2608 0.68622C49.5516 0.578606 48.876 1.01788 48.6872 1.70943C48.532 2.22104 48.4014 2.7397 48.2991 3.26365V3.45771H47.9004L48.0239 0.227539H55.1811L55.3645 3.50887H54.9358C54.8124 2.98668 54.7118 2.48566 54.5583 1.97582C54.4225 1.12197 53.6215 0.541559 52.7677 0.677399C52.7483 0.680927 52.7271 0.684456 52.7077 0.687984C52.4113 0.687984 52.309 0.790305 52.2684 1.08668C52.2684 1.189 52.2684 1.30191 52.2684 1.41305V7.67052C52.2684 8.09921 52.4008 8.2227 52.8312 8.23328H53.6145V8.22975Z" fill="white"/>
<path d="M54.7194 22.4928L55.2204 22.5545C55.1799 24.2464 53.8444 25.6242 52.1526 25.7141C50.5243 25.8359 49.0071 24.8832 48.4108 23.3625C47.6681 21.7642 47.7845 19.8995 48.7178 18.4035C49.7269 16.7293 51.9003 16.1912 53.5727 17.1985C53.705 17.2779 53.8321 17.3661 53.952 17.4614L54.2078 17.0415C54.423 16.7046 54.423 16.7046 54.8623 16.7751L55.0564 20.1994H54.6065C54.5377 19.8518 54.446 19.5114 54.3313 19.1762C54.1602 18.7316 53.9308 18.3117 53.6468 17.9289C52.8847 17.0063 51.5192 16.8757 50.5948 17.6378C50.3496 17.8389 50.152 18.093 50.0162 18.3788C49.7516 18.9539 49.5981 19.5749 49.5663 20.2082C49.4587 21.2367 49.5346 22.274 49.7904 23.2761C49.9562 24.1087 50.5842 24.7721 51.4063 24.9838C52.5654 25.3243 53.7968 24.7562 54.289 23.6554C54.4442 23.3202 54.5554 22.9021 54.7194 22.4928Z" fill="white"/>
<path d="M70.1276 8.78197H67.3261C67.3261 8.78197 67.3261 8.78197 67.3261 8.73081C67.3261 8.28095 67.3261 8.28095 67.7548 8.27037C68.1835 8.25978 68.2258 8.18921 68.2258 7.77993V1.16611C68.2258 0.726833 68.1235 0.624511 67.6737 0.603342H67.2344V0.142897L69.279 0V4.17223L69.4837 3.9376C70.0129 3.27427 70.8844 2.99025 71.703 3.21253C72.4792 3.38718 73.0102 4.10519 72.9502 4.89906C72.9502 5.74762 72.9502 6.5856 72.9502 7.43416V7.57705C72.9502 8.24214 72.9502 8.25096 73.6047 8.28271H73.8394V8.77315H70.9867C70.9903 8.75551 70.9903 8.73963 70.9867 8.72199C70.9867 8.27213 70.9867 8.27213 71.396 8.26155C71.8053 8.25096 71.8865 8.18039 71.8865 7.74994V5.11253C71.9623 4.48449 71.5142 3.91466 70.8862 3.8388C70.6251 3.80705 70.3605 3.86703 70.1382 4.00816C69.6142 4.27102 69.2914 4.81262 69.3108 5.39832C69.3108 6.21689 69.3108 7.04428 69.3108 7.86285C69.3108 8.18039 69.4025 8.24038 69.7201 8.26155H69.7924C70.1982 8.28095 70.1982 8.28095 70.1276 8.78197Z" fill="white"/>
<path d="M76.4549 3.14902V4.17223C76.6084 3.98346 76.776 3.80528 76.956 3.64121C77.5593 3.06257 78.4537 2.90733 79.2158 3.2531C79.9021 3.53184 80.3202 4.23397 80.2391 4.97139C80.2391 5.9011 80.2391 6.82199 80.2391 7.7517C80.2391 8.13981 80.3114 8.21214 80.6995 8.22273C81.1599 8.22273 81.1705 8.22273 81.077 8.73433H78.235C78.2314 8.6867 78.2314 8.63907 78.235 8.59144C78.235 8.23331 78.235 8.23331 78.5719 8.22273H78.7872C78.9548 8.24214 79.1065 8.12041 79.1259 7.95105C79.1294 7.92635 79.1276 7.89989 79.1241 7.87519C79.1241 7.22069 79.1241 6.56619 79.1241 5.91168V5.11429C79.1964 4.52506 78.7801 3.99052 78.1909 3.91642C78.0268 3.89525 77.8592 3.91466 77.7022 3.96935C77.1888 4.07873 76.7884 4.47919 76.679 4.99256C76.6137 5.21484 76.5802 5.44595 76.5767 5.67705C76.5767 6.42329 76.5767 7.18011 76.5767 7.92635C76.5767 8.20156 76.6684 8.27389 76.9348 8.30388H77.0371C77.4976 8.30388 77.4976 8.30388 77.4464 8.81549H74.532C74.5267 8.79608 74.5267 8.77491 74.532 8.75374C74.532 8.31447 74.532 8.31447 74.9413 8.30388C75.3506 8.2933 75.4211 8.24214 75.4211 7.81345C75.4211 6.63852 75.4211 5.46182 75.4211 4.29572C75.4211 3.91819 75.3188 3.80528 74.9413 3.7947C74.7772 3.7947 74.6149 3.7947 74.4297 3.7947V3.29368L76.4549 3.14902Z" fill="white"/>
<path d="M73.2546 37.9205C73.2511 37.8729 73.2511 37.8252 73.2546 37.7776C73.2546 37.3683 73.2546 37.4406 73.5916 37.4195L75.0946 37.3172H75.2887V38.3404L75.4721 38.1146C75.9961 37.4248 76.8852 37.1213 77.7214 37.3471C78.4589 37.4671 78.9987 38.104 78.9987 38.8502C78.9987 39.7905 78.9987 40.722 78.9987 41.6623V42.1121C78.9987 42.3168 79.1222 42.4085 79.3251 42.4191H79.8772V42.9413H77.0652V42.4614H77.5662C77.8414 42.4614 77.9349 42.3697 77.9349 42.0927C77.9349 41.0695 77.9349 40.0481 77.9349 39.0249C77.9349 38.238 77.1993 37.8499 76.3507 38.1146C75.9061 38.2522 75.5692 38.6191 75.4721 39.076C75.4016 39.3406 75.361 39.6106 75.3487 39.884C75.3487 40.5897 75.3487 41.2847 75.3487 41.9904C75.3487 42.3379 75.4104 42.3997 75.7685 42.4191H76.229V42.9413H73.3552V42.4703H73.8668C74.1631 42.4703 74.2443 42.3785 74.2443 42.0927V38.351C74.2443 38.0652 74.1526 37.9523 73.8668 37.9223C73.5827 37.8905 73.4592 37.9205 73.2546 37.9205Z" fill="white"/>
<path d="M56.2109 37.9098C56.2109 37.8375 56.2109 37.7969 56.2109 37.7563C56.2109 37.4388 56.2109 37.4388 56.5373 37.4194L58.1215 37.3065H58.1833V38.3297L58.3262 38.1656C58.8254 37.4829 59.6722 37.1477 60.5031 37.3065C61.3111 37.4212 61.9021 38.1268 61.8739 38.9419C61.8739 39.9651 61.8739 40.9054 61.8739 41.8862C61.8739 42.3255 61.8739 42.3661 62.3643 42.3978H62.763V42.9394H60.0127V42.4684H60.5437C60.7678 42.4684 60.8912 42.3661 60.8912 42.142C60.8912 41.1188 60.8912 40.0974 60.8912 39.0742C60.9036 38.5485 60.489 38.1127 59.9633 38.1004C59.9315 38.1004 59.8998 38.1004 59.868 38.1021C59.0971 38.0386 58.4214 38.6137 58.3579 39.3847C58.3526 39.4411 58.3526 39.4976 58.3544 39.554C58.3032 40.4238 58.3544 41.2917 58.3544 42.1614C58.3544 42.3661 58.4673 42.4578 58.6719 42.4684H59.2241V42.9394H56.3203V42.4596H56.8107C57.1177 42.4596 57.1883 42.3784 57.1989 42.0609V38.4514C57.1989 38.0227 57.0965 37.9204 56.6573 37.9098H56.2109Z" fill="white"/>
<path d="M94.3869 8.0868C93.8136 8.70073 92.9968 9.03062 92.1588 8.98652C91.5149 9.01651 90.9256 8.62134 90.7069 8.01447C90.4934 7.36879 90.7404 6.6596 91.3102 6.28736C91.9594 5.88513 92.6828 5.61345 93.436 5.48996L94.1717 5.34706C94.2334 5.34706 94.3252 5.25533 94.3252 5.21475C94.3234 4.8725 94.2987 4.53202 94.2529 4.19154C94.2123 3.95338 94.0359 3.76109 93.803 3.7011C93.3161 3.53351 92.7868 3.53351 92.2999 3.7011C91.9824 3.81401 91.9524 3.92515 92.1253 4.21271C92.2911 4.44911 92.2911 4.76313 92.1253 4.99952C91.9224 5.20593 91.6172 5.2712 91.349 5.16359C91.0774 5.08244 90.8974 4.82311 90.9204 4.53908C90.9133 4.13509 91.1038 3.75403 91.432 3.51587C92.0653 3.10835 92.8256 2.94957 93.5684 3.06601C93.8312 3.08365 94.0923 3.12775 94.3446 3.19832C94.9462 3.3324 95.3731 3.87046 95.3678 4.48615C95.3678 5.32413 95.3678 6.17269 95.3678 7.02125V7.47111C95.3678 8.07445 95.5936 8.21735 96.144 8.00212C96.2164 8.00212 96.3698 8.00212 96.3998 8.00212C96.4404 8.09386 96.4404 8.19794 96.3998 8.28791C96.264 8.46256 96.0981 8.61252 95.9094 8.72719C95.2972 9.12942 94.7256 8.8842 94.3869 8.0868ZM94.3869 5.8375C93.7342 5.8816 93.0956 6.05273 92.5063 6.33852C92.3299 6.43378 92.1711 6.55904 92.0353 6.70723C91.6719 7.13945 91.7266 7.78336 92.1588 8.14854C92.2153 8.19618 92.277 8.23852 92.3423 8.27203C93.1009 8.51902 93.9177 8.12032 94.1929 7.37232C94.2969 6.866 94.3622 6.35263 94.3869 5.8375Z" fill="white"/>
<path d="M56.0795 22.7998C56.0142 21.863 56.3935 20.9509 57.1027 20.3352C58.2388 19.4249 59.8989 19.6066 60.811 20.7445C61.0721 21.0691 61.252 21.4519 61.3349 21.8595C61.529 22.641 61.4566 23.4648 61.1303 24.2005C60.4934 25.5113 58.9145 26.0564 57.6055 25.4195C56.8645 25.0596 56.3353 24.3734 56.173 23.5654C56.1677 23.4737 56.1677 23.3819 56.173 23.2902C56.0795 23.1067 56.0795 22.9215 56.0795 22.7998ZM60.2605 22.7274C60.1988 22.2158 60.1106 21.7077 59.9942 21.2032C59.7966 20.5205 59.0803 20.1271 58.3976 20.3246C57.9742 20.4481 57.6425 20.778 57.5191 21.2032C57.2191 22.2035 57.2191 23.2708 57.5191 24.2711C57.7078 24.9573 58.417 25.3613 59.1033 25.1725C59.5408 25.0526 59.8848 24.7103 60.0047 24.2711C60.1035 23.7612 60.1759 23.2461 60.22 22.7274H60.2605Z" fill="white"/>
<path d="M91.4947 40.2828H87.6206C87.453 41.0872 87.8146 41.9076 88.5203 42.3274C89.39 42.7155 90.228 42.3274 91.0554 41.1931L91.4541 41.4171C90.9266 42.7808 89.3936 43.46 88.0299 42.9325C87.7617 42.8284 87.513 42.6838 87.2925 42.5003C86.7297 41.9675 86.4016 41.2319 86.3821 40.4557C86.2851 39.6406 86.5003 38.8185 86.9855 38.1552C87.6082 37.3402 88.6738 37.0014 89.6547 37.3066C90.5685 37.5077 91.2548 38.261 91.3729 39.1872C91.4435 39.5559 91.4541 39.8735 91.4947 40.2828ZM87.5994 39.7712H89.8787C90.1345 39.7712 90.2368 39.6583 90.2157 39.383C90.1998 39.0884 90.1486 38.7956 90.0622 38.5133C89.944 38.0723 89.547 37.7636 89.0901 37.7565C88.5944 37.6736 88.104 37.9276 87.8834 38.381C87.6929 38.8185 87.5959 39.2931 87.5994 39.7712Z" fill="white"/>
<path d="M85.73 40.2934H81.8241C81.653 41.1031 82.0253 41.9288 82.745 42.338C83.6148 42.7156 84.4721 42.338 85.2607 41.1825L85.67 41.4171C85.3119 42.3486 84.4545 42.9943 83.4613 43.0843C82.0641 43.2483 80.7992 42.2498 80.6351 40.8526C80.6263 40.775 80.621 40.6974 80.6192 40.6197C80.5451 39.9811 80.6333 39.3337 80.875 38.7392C81.3461 37.6471 82.5227 37.0385 83.6871 37.2873C84.7738 37.4566 85.5977 38.3581 85.67 39.4554C85.6577 39.72 85.6577 39.9864 85.73 40.2934ZM81.8647 39.7712H84.1034C84.3081 39.7712 84.4915 39.69 84.4616 39.4536C84.4474 39.0849 84.3786 38.7198 84.2569 38.3705C83.9588 37.7883 83.2425 37.5572 82.6604 37.8571C82.4786 37.9506 82.3252 38.0882 82.2123 38.2593C81.9388 38.7162 81.7994 39.2402 81.8136 39.773H81.8647V39.7712Z" fill="white"/>
<path d="M72.54 22.8193H68.6853C68.4242 23.742 68.9605 24.7034 69.8832 24.9663C69.9661 24.9892 70.0508 25.0069 70.1372 25.0175C70.7211 25.0686 71.2927 24.8322 71.6703 24.3841C71.8343 24.1901 71.9666 23.9748 72.1307 23.7508L72.5082 23.9748C72.1219 25.0422 71.0846 25.7302 69.952 25.672C68.7135 25.6631 67.6709 24.7422 67.5086 23.5144C67.3004 22.6235 67.4539 21.685 67.9373 20.907C68.5265 20.0143 69.6238 19.6015 70.6576 19.8838C71.6403 20.1025 72.3742 20.9264 72.4782 21.9284C72.5188 22.1966 72.5188 22.4929 72.54 22.8193ZM68.6853 22.2989H70.8834C71.201 22.2989 71.2927 22.2177 71.2716 21.9214C71.2663 21.6373 71.2257 21.3568 71.1481 21.0834C71.0246 20.6159 70.6082 20.2878 70.1249 20.2754C69.6238 20.2172 69.1457 20.4959 68.9499 20.9599C68.7541 21.378 68.6624 21.8367 68.6853 22.2989Z" fill="white"/>
<path d="M61.2519 6.13374H57.429C57.2367 6.95936 57.6124 7.81145 58.3498 8.22956C59.2496 8.59826 60.1387 8.22956 60.8549 7.07403L61.2536 7.29808C60.892 8.26131 59.9993 8.9211 58.9744 8.98461C57.5736 9.10458 56.3405 8.06725 56.2187 6.66651C56.217 6.64181 56.2152 6.61712 56.2135 6.59242C56.1005 5.90087 56.1905 5.18991 56.4693 4.54776C56.8186 3.6745 57.6548 3.09233 58.5951 3.06587C59.493 2.9512 60.3751 3.37636 60.8444 4.14906C61.1954 4.74887 61.3383 5.44572 61.2519 6.13374ZM57.4184 5.61331H59.7806C59.8617 5.53216 60.0064 5.43866 60.0064 5.35751C60.0117 5.0135 59.9711 4.66949 59.8829 4.3343C59.7435 3.84915 59.2937 3.52102 58.7891 3.5369C58.2952 3.51396 57.84 3.80505 57.6548 4.26197C57.4748 4.68889 57.3937 5.1511 57.4184 5.61331Z" fill="white"/>
<path d="M100.819 37.707C101.013 37.5129 101.137 37.1848 101.525 37.3488V39.2718C101.28 39.3441 101.147 39.2718 101.054 39.016C100.863 38.4285 100.385 37.9804 99.7856 37.8305C99.4433 37.7422 99.0781 37.7811 98.7623 37.9434C98.4272 38.1039 98.2843 38.5079 98.4466 38.8431C98.5136 38.9807 98.6247 39.0936 98.7623 39.1589C99.064 39.3176 99.3833 39.4411 99.7132 39.5276C100.133 39.6511 100.562 39.7216 100.96 39.8645C101.589 40.0198 102.017 40.5984 101.984 41.2441C102.082 41.9974 101.663 42.7225 100.96 43.0135C100.205 43.3487 99.3304 43.2676 98.6494 42.7983L98.4554 42.666C98.2313 42.8407 98.1802 43.3205 97.6986 43.137V40.7854H97.9949C98.1078 41.0606 98.1996 41.3482 98.3319 41.604C98.6759 42.3626 99.498 42.786 100.315 42.6272C100.802 42.5637 101.174 42.165 101.204 41.6763C101.236 41.3676 101.043 41.0783 100.743 40.9918C100.396 40.8789 100.038 40.8083 99.7203 40.706C99.3251 40.6037 98.937 40.4802 98.5542 40.3373C97.8662 40.0498 97.4992 39.2982 97.695 38.5785C97.785 37.894 98.3284 37.3594 99.0146 37.28C99.6515 37.1901 100.294 37.3435 100.819 37.707Z" fill="white"/>
<path d="M89.6942 7.04445L90.0929 7.23851C89.8829 8.21585 89.045 8.93033 88.0482 8.98679C86.6404 9.09087 85.4161 8.03238 85.312 6.62458C85.305 6.51873 85.3032 6.41288 85.3085 6.30703C85.222 5.37732 85.5519 4.45643 86.2082 3.79135C87.0497 3.03981 88.2634 2.87398 89.2761 3.37148C89.8053 3.61317 90.0911 4.19534 89.9606 4.76163C89.8706 5.10741 89.5513 5.34557 89.1932 5.33498C88.8686 5.35439 88.5757 5.13916 88.4981 4.82338C88.4504 4.58522 88.5281 4.33823 88.7027 4.16887C88.9179 3.94483 88.8862 3.81075 88.611 3.68902C87.9794 3.39265 87.2279 3.63963 86.8927 4.25179C86.7445 4.5764 86.6439 4.92041 86.5963 5.275C86.4764 5.89951 86.5046 6.54343 86.6775 7.15559C86.8027 7.80304 87.3673 8.2723 88.0271 8.27936C88.6445 8.34993 89.239 8.0165 89.5001 7.45197L89.6942 7.04445Z" fill="white"/>
<path d="M66.3639 7.04449L66.752 7.24914C66.5439 8.22648 65.7041 8.9392 64.7074 8.98683C63.3137 9.11738 62.077 8.0924 61.9482 6.69696C61.9412 6.61933 61.9377 6.53995 61.9377 6.46056C61.8459 5.61729 62.077 4.7705 62.5816 4.08777C63.3525 3.1263 64.6739 2.80346 65.8029 3.30095C66.341 3.48972 66.6815 4.02073 66.6303 4.58879C66.5986 5.02277 66.2228 5.34914 65.7888 5.31739C65.69 5.31033 65.5948 5.28563 65.5048 5.24329C65.1767 5.09334 65.0302 4.70522 65.1802 4.37709C65.2066 4.32064 65.2402 4.26771 65.279 4.22184C65.5648 3.85314 65.4942 3.66966 65.0232 3.58851C64.3281 3.3874 63.603 3.78786 63.4019 4.48294C63.3966 4.50235 63.3913 4.52175 63.386 4.53939C63.1355 5.37913 63.1355 6.27532 63.386 7.11506C63.5236 7.74839 64.0776 8.20531 64.725 8.21942C65.3319 8.28999 65.9176 7.97068 66.1875 7.42202C66.221 7.33029 66.3022 7.1574 66.3639 7.04449Z" fill="white"/>
<path d="M96.8111 8.78197V8.27037H97.3527C97.6702 8.27037 97.7619 8.15746 97.7619 7.86108V1.07437C97.7619 0.756823 97.6808 0.665087 97.3632 0.624511C97.268 0.613927 97.1727 0.613927 97.0774 0.624511H96.7599C96.7493 0.511605 96.7493 0.398699 96.7599 0.287558C96.7599 0.236397 96.841 0.155246 96.8834 0.155246L98.8557 0V7.63703C98.8557 7.72877 98.8557 7.82051 98.8557 7.90342C98.8257 8.06925 98.9369 8.22979 99.1027 8.25978C99.1362 8.26507 99.1697 8.26684 99.2033 8.26155H99.7554V8.78374H96.8111V8.78197Z" fill="white"/>
<path d="M95.6866 37.8287C95.3091 37.8304 94.9633 38.0386 94.7869 38.3703C94.3794 38.9736 94.1624 39.6863 94.1624 40.4149C94.1624 40.9371 94.1624 41.4381 94.1624 41.9886C94.1624 42.2849 94.2436 42.3573 94.5399 42.3767H95.265V42.9394H92.1266V42.6131C92.1266 42.4896 92.1266 42.4384 92.2906 42.4384H92.6788C92.9963 42.4384 93.0669 42.3467 93.0669 42.0291V38.7266C93.0669 37.9292 93.0669 37.9186 92.2483 37.9081H92.0137C92.0137 37.8269 92.0137 37.7546 92.0137 37.684V37.4388L94.0583 37.2959V38.8501L94.1606 38.6243C94.3212 38.1991 94.5929 37.8251 94.9475 37.5411C95.4026 37.2147 96.0148 37.2147 96.4717 37.5411C96.7981 37.7705 96.941 38.1815 96.8298 38.5643C96.7892 38.8219 96.5864 39.0248 96.3288 39.0653C96.0518 39.15 95.7519 39.0565 95.572 38.8307C95.4167 38.619 95.3973 38.3368 95.5208 38.1056C95.5632 38.0051 95.6178 37.9116 95.6866 37.8287Z" fill="white"/>
<path d="M65.2815 24.9469V25.469H62.2136V24.968H62.7764C63.0728 24.968 63.1539 24.8657 63.1539 24.5799C63.1539 23.3538 63.1539 22.126 63.1539 20.8893C63.1539 20.6035 63.0622 20.5012 62.7658 20.48C62.4695 20.4588 62.3371 20.48 62.1113 20.48V19.9896L64.156 19.8467V21.3497C64.2177 21.2174 64.2689 21.0834 64.3306 20.9616C64.5564 20.3565 65.0857 19.9172 65.7208 19.8061C66.2747 19.6932 66.8146 20.0478 66.9275 20.6017C66.9522 20.7199 66.9557 20.8417 66.9363 20.9616C66.8993 21.2492 66.6875 21.4821 66.4053 21.5438C66.1354 21.6179 65.846 21.5262 65.6696 21.3092C65.5109 21.064 65.5109 20.7482 65.6696 20.5012L65.742 20.3777C65.4862 20.3671 65.2374 20.473 65.0681 20.6635C64.6147 21.0851 64.3289 21.6532 64.2601 22.2689C64.1789 23.0363 64.1789 23.8125 64.1578 24.5799C64.1578 24.8463 64.2601 24.938 64.5265 24.9486C64.7911 24.9574 64.994 24.9469 65.2815 24.9469Z" fill="white"/>
<path d="M81.6382 3.29182L83.6829 3.14893V7.76043C83.6829 8.19971 83.7446 8.26145 84.1839 8.27204H84.5932V8.76247H81.6276C81.6241 8.72895 81.6241 8.69367 81.6276 8.66015C81.6276 8.27204 81.6276 8.27204 81.9964 8.25087C82.5891 8.25087 82.6103 8.19971 82.6103 7.60695V4.37501C82.6103 3.85282 82.5185 3.76109 81.9964 3.7505H81.6382V3.29182Z" fill="white"/>
<path d="M69.696 42.9412C69.696 42.4702 69.696 42.4702 70.0947 42.4402H70.2888C70.5552 42.4402 70.6469 42.3378 70.6469 42.0715V38.3297C70.6751 38.1392 70.5446 37.9627 70.354 37.9345C70.3364 37.931 70.317 37.931 70.2993 37.931C70.0947 37.931 69.8795 37.931 69.666 37.931V37.4705L71.7107 37.3276V41.918C71.7107 42.3378 71.7107 42.389 72.1711 42.4084H72.6104V42.9394H69.696V42.9412Z" fill="white"/>
<path d="M83.1733 0.20459C83.5632 0.209882 83.8772 0.520374 83.8896 0.910252C83.8896 1.30542 83.5685 1.6265 83.1733 1.6265C82.7782 1.6265 82.4571 1.30542 82.4571 0.910252C82.4518 0.525666 82.757 0.209882 83.1416 0.20459C83.1522 0.20459 83.1628 0.20459 83.1733 0.20459Z" fill="white"/>
<path d="M70.4649 35.0678C70.4596 34.6779 70.7701 34.3586 71.16 34.3516C71.1635 34.3516 71.167 34.3516 71.1706 34.3516C71.5675 34.3516 71.8903 34.6709 71.8956 35.0678C71.8851 35.463 71.5552 35.7735 71.16 35.7629C70.7825 35.7682 70.4702 35.4665 70.4649 35.089C70.4649 35.0819 70.4649 35.0749 70.4649 35.0678Z" fill="white"/>
<path d="M23.6079 38.1057C21.1822 38.1004 19.217 36.1352 19.2117 33.7094V0.20459H0V6.98248H12.432V36.6327C12.4426 41.193 16.1438 44.8836 20.7024 44.8836H25.231V38.1057H23.6079Z" fill="#F47B55"/>
<path d="M12.4317 6.98242V36.6326C12.4299 37.4441 12.5499 38.2503 12.7898 39.0248L19.2113 6.98242H12.4317Z" fill="url(#paint0_linear_2962_6376)"/>
<path d="M0.00976562 0.20459V6.98248L19.2108 0.20459H0.00976562Z" fill="url(#paint1_linear_2962_6376)"/>
<path d="M19.2124 33.7396V29.0981C19.2124 29.0981 18.1186 34.5776 18.9671 36.8075C19.8157 39.0356 22.3825 39.4449 25.2352 39.4449V38.1059H23.6104C21.1935 38.0989 19.2335 36.153 19.2124 33.7396Z" fill="url(#paint2_linear_2962_6376)"/>
<path d="M12.4316 6.98242H19.2113V7.47286L12.4316 9.04825V6.98242Z" fill="#C35030"/>
<path d="M39.9356 33.8613V36.6116C39.9356 40.6022 37.0829 44.0229 33.1577 44.7391C32.669 44.8326 32.1733 44.882 31.6758 44.882H26.625V38.0935H28.7614C31.1271 38.1006 33.0695 36.2253 33.1471 33.8613H39.9356Z" fill="#F47B55"/>
<path d="M39.9357 33.8613V36.6116C39.9357 40.6022 37.083 44.0229 33.1578 44.7391C32.6691 44.8326 32.1734 44.882 31.6759 44.882H27.1367V44.1764H30.5204C31.0214 44.1781 31.5206 44.134 32.0128 44.044C35.9363 43.3243 38.7872 39.9053 38.7907 35.9166V33.8719L39.9357 33.8613Z" fill="url(#paint3_linear_2962_6376)"/>
<path d="M34.3538 33.8613V35.0468C34.3538 37.4743 32.385 39.4431 29.9575 39.4431H26.625V38.0935H28.7614C31.1271 38.1006 33.0695 36.2253 33.1471 33.8613H34.3538Z" fill="url(#paint4_linear_2962_6376)"/>
<path d="M39.9347 8.4857V11.9611H33.238V11.3877C33.2556 8.97613 31.315 7.0091 28.9034 6.99146H23.7909C22.6107 6.98969 21.4834 7.47484 20.6719 8.33045V0.215332H31.7649C36.2829 0.220625 39.94 3.88654 39.9347 8.40455C39.9347 8.43101 39.9347 8.45924 39.9347 8.4857Z" fill="#F47B55"/>
<path d="M34.6087 11.3896V11.9629H33.238V11.3896C33.2556 8.97798 31.315 7.01094 28.9034 6.9933H23.7909C22.6107 6.99154 21.4834 7.47668 20.6719 8.3323V6.76749C21.0618 6.35291 21.5416 6.03184 22.0726 5.8272C22.6283 5.65431 23.2087 5.56786 23.7909 5.57139H28.9034C32.0789 5.61726 34.6246 8.2141 34.6087 11.3896Z" fill="url(#paint5_linear_2962_6376)"/>
<path d="M39.935 8.4857V11.9611H38.5237V8.4857C38.5466 4.72981 35.5229 1.6637 31.7652 1.63548H20.6934V0.215332H31.7652C36.2832 0.220625 39.9403 3.88654 39.935 8.40455C39.935 8.43101 39.935 8.45924 39.935 8.4857Z" fill="url(#paint6_linear_2962_6376)"/>
<path d="M39.935 20.3159H20.6934V25.5202H39.935V20.3159Z" fill="#F47B55"/>
<path d="M39.935 22.0835H20.6934V23.7083H39.935V22.0835Z" fill="url(#paint7_linear_2962_6376)"/>
</g>
<defs>
<linearGradient id="paint0_linear_2962_6376" x1="15.8215" y1="6.98242" x2="15.8215" y2="39.0248" gradientUnits="userSpaceOnUse">
<stop stop-color="#F26747" stop-opacity="0"/>
<stop offset="1" stop-color="#F26447"/>
</linearGradient>
<linearGradient id="paint1_linear_2962_6376" x1="-4.68367" y1="4.43585" x2="14.9158" y2="0.918791" gradientUnits="userSpaceOnUse">
<stop stop-color="white" stop-opacity="0.28"/>
<stop offset="0.43" stop-color="white" stop-opacity="0.27"/>
<stop offset="0.61" stop-color="white" stop-opacity="0.24"/>
<stop offset="0.75" stop-color="white" stop-opacity="0.19"/>
<stop offset="0.87" stop-color="white" stop-opacity="0.12"/>
<stop offset="0.97" stop-color="white" stop-opacity="0.03"/>
<stop offset="1" stop-color="white" stop-opacity="0"/>
</linearGradient>
<linearGradient id="paint2_linear_2962_6376" x1="32.7889" y1="42.2722" x2="16.3793" y2="31.5778" gradientUnits="userSpaceOnUse">
<stop stop-color="#F69169" stop-opacity="0"/>
<stop offset="0.984375" stop-color="#F9AC82"/>
</linearGradient>
<linearGradient id="paint3_linear_2962_6376" x1="27.1366" y1="39.3757" x2="39.9356" y2="39.3757" gradientUnits="userSpaceOnUse">
<stop stop-color="#F6946C" stop-opacity="0"/>
<stop offset="1" stop-color="#F89D75"/>
</linearGradient>
<linearGradient id="paint4_linear_2962_6376" x1="28.8474" y1="39.6044" x2="33.2029" y2="33.3984" gradientUnits="userSpaceOnUse">
<stop stop-color="#EF4137"/>
<stop offset="0.12" stop-color="#F15F56" stop-opacity="0.84"/>
<stop offset="0.36" stop-color="#F69791" stop-opacity="0.55"/>
<stop offset="0.58" stop-color="#FAC4C1" stop-opacity="0.31"/>
<stop offset="0.76" stop-color="#FDE4E2" stop-opacity="0.14"/>
<stop offset="0.91" stop-color="#FEF8F7" stop-opacity="0.04"/>
<stop offset="1" stop-color="white" stop-opacity="0"/>
</linearGradient>
<linearGradient id="paint5_linear_2962_6376" x1="22.1552" y1="4.06131" x2="35.0682" y2="14.408" gradientUnits="userSpaceOnUse">
<stop stop-color="#FDDE99"/>
<stop offset="1" stop-color="#F69164" stop-opacity="0"/>
</linearGradient>
<linearGradient id="paint6_linear_2962_6376" x1="20.6932" y1="6.09255" x2="39.9349" y2="6.09255" gradientUnits="userSpaceOnUse">
<stop stop-color="#E62919"/>
<stop offset="1" stop-color="#F37551" stop-opacity="0"/>
</linearGradient>
<linearGradient id="paint7_linear_2962_6376" x1="20.6932" y1="22.8965" x2="39.9349" y2="22.8965" gradientUnits="userSpaceOnUse">
<stop stop-color="#EF4036"/>
<stop offset="1" stop-color="#F26B4B" stop-opacity="0"/>
</linearGradient>
<clipPath id="clip0_2962_6376">
<rect width="102" height="45.3618" fill="white"/>
</clipPath>
</defs>
</svg>
